<svg width="20" height="20" viewBox="0 0 20 20" fill="none" xmlns="http://www.w3.org/2000/svg">
<g clip-path="url(#clip0_5_88)">
<path d="M15.57 0.546875H4.50816C3.46828 0.548043 2.47133 0.961652 1.73602 1.69696C1.00071 2.43227 0.587106 3.42922 0.585938 4.4691V15.5309C0.587116 16.5708 1.00073 17.5678 1.73604 18.3031C2.47134 19.0384 3.46829 19.452 4.50816 19.4531H15.57C16.6099 19.4519 17.6068 19.0383 18.3421 18.303C19.0774 17.5677 19.491 16.5708 19.4922 15.5309V4.4691C19.491 3.42923 19.0774 2.43228 18.3421 1.69697C17.6068 0.961667 16.6099 0.548054 15.57 0.546875ZM19.0234 15.5309C19.0224 16.4465 18.6582 17.3243 18.0108 17.9717C17.3634 18.6192 16.4856 18.9833 15.57 18.9844H4.50816C3.59257 18.9833 2.71477 18.6192 2.06734 17.9717C1.41992 17.3243 1.05573 16.4465 1.05469 15.5309V4.4691C1.05572 3.5535 1.4199 2.6757 2.06733 2.02827C2.71476 1.38084 3.59256 1.01666 4.50816 1.01563H15.57C16.4856 1.01667 17.3634 1.38085 18.0108 2.02828C18.6582 2.67571 19.0224 3.55351 19.0234 4.4691V15.5309Z" fill="black"/>
<path d="M19.0234 15.5309C19.0224 16.4465 18.6582 17.3243 18.0108 17.9717C17.3634 18.6192 16.4856 18.9833 15.57 18.9844H4.50816C3.59257 18.9833 2.71477 18.6192 2.06734 17.9717C1.41992 17.3243 1.05573 16.4465 1.05469 15.5309V4.4691C1.05572 3.5535 1.4199 2.6757 2.06733 2.02827C2.71476 1.38084 3.59256 1.01666 4.50816 1.01563H15.57C16.4856 1.01667 17.3634 1.38085 18.0108 2.02828C18.6582 2.67571 19.0224 3.55351 19.0234 4.4691V15.5309Z" fill="#FAC714"/>
<path d="M10.2422 3.77605C10.2313 3.77803 10.2205 3.78101 10.2105 3.78398C10.0927 3.81076 10.0095 3.91688 10.0125 4.03788V4.54567C10.0115 4.63692 10.059 4.72221 10.1383 4.76882C10.2175 4.81445 10.3145 4.81445 10.3937 4.76882C10.473 4.72221 10.5205 4.63692 10.5195 4.54567V4.03788C10.5225 3.96449 10.4928 3.89407 10.4403 3.84448C10.3868 3.7939 10.3145 3.76911 10.2422 3.77605ZM8.42021 4.52187C8.32514 4.53873 8.2489 4.60815 8.22216 4.70039C8.19542 4.79362 8.22315 4.8928 8.29346 4.95825L8.64994 5.32323C8.75094 5.42439 8.91334 5.42439 9.01435 5.32323C9.11535 5.22207 9.11535 5.05942 9.01435 4.95825L8.64994 4.60121C8.60241 4.55063 8.53705 4.52286 8.46774 4.52187C8.45982 4.52187 8.45189 4.52187 8.44397 4.52187C8.43605 4.52187 8.42813 4.52187 8.42021 4.52187ZM12.0326 4.52187C11.9751 4.5298 11.9217 4.55857 11.8821 4.60121L11.5177 4.95825C11.4167 5.05942 11.4167 5.22207 11.5177 5.32323C11.6187 5.42439 11.7811 5.42439 11.8821 5.32323L12.2386 4.95825C12.3138 4.88585 12.3366 4.77378 12.296 4.67758C12.2564 4.58138 12.1603 4.51989 12.0563 4.52187C12.0484 4.52187 12.0405 4.52187 12.0326 4.52187ZM10.266 5.30736C9.7085 5.30736 9.252 5.76457 9.252 6.32295V7.08464H4.38005C3.99683 7.08464 3.675 7.39804 3.675 7.78285V14.0033C3.675 14.3881 3.99683 14.7015 4.38005 14.7015H5.4495C5.4495 15.5396 6.13376 16.2249 6.9705 16.2249C7.80725 16.2249 8.4915 15.5396 8.4915 14.7015H12.0405C12.0405 15.5396 12.7248 16.2249 13.5615 16.2249C14.3983 16.2249 15.0825 15.5396 15.0825 14.7015H15.645C16.0282 14.7015 16.35 14.3881 16.35 14.0033V12.226C16.35 11.9464 16.247 11.6944 16.152 11.504C16.0609 11.3225 15.9787 11.2065 15.9698 11.1946L15.9618 11.1787L13.6803 7.64797C13.6734 7.63706 13.6655 7.62615 13.6566 7.61623C13.5575 7.49821 13.4674 7.37523 13.3318 7.26712C13.1961 7.15902 13.009 7.08464 12.7931 7.08464H11.28V6.32295C11.28 5.76457 10.8225 5.30736 10.266 5.30736ZM10.266 5.81515C10.5492 5.81515 10.773 6.0393 10.773 6.32295V7.08464H9.759V6.32295C9.759 6.0393 9.9828 5.81515 10.266 5.81515ZM7.65971 6.06905C7.52008 6.08889 7.42205 6.21881 7.44185 6.35865C7.46166 6.49849 7.59138 6.59668 7.731 6.57684H8.238C8.3291 6.57783 8.41426 6.53023 8.46081 6.45089C8.50636 6.37154 8.50636 6.27435 8.46081 6.19501C8.41426 6.11566 8.3291 6.06806 8.238 6.06905H7.731C7.72308 6.06905 7.71516 6.06905 7.70724 6.06905C7.69932 6.06905 7.69139 6.06905 7.68347 6.06905C7.67555 6.06905 7.66763 6.06905 7.65971 6.06905ZM12.2227 6.06905C12.0831 6.08889 11.985 6.21881 12.0049 6.35865C12.0247 6.49849 12.1544 6.59668 12.294 6.57684H12.801C12.8921 6.57783 12.9773 6.53023 13.0238 6.45089C13.0694 6.37154 13.0694 6.27435 13.0238 6.19501C12.9773 6.11566 12.8921 6.06806 12.801 6.06905H12.294C12.2861 6.06905 12.2782 6.06905 12.2702 6.06905C12.2623 6.06905 12.2544 6.06905 12.2465 6.06905C12.2385 6.06905 12.2306 6.06905 12.2227 6.06905ZM4.38005 7.59243H12.7931C12.907 7.59243 12.9476 7.61821 13.0149 7.67177C13.0797 7.72331 13.1564 7.81526 13.2565 7.93524C13.2604 7.93994 13.2644 7.94468 13.2684 7.94947L13.3635 8.10022H11.787C11.7791 8.10022 11.7712 8.10022 11.7632 8.10022C11.7553 8.10022 11.7474 8.10022 11.7395 8.10022C11.6187 8.12303 11.5315 8.23014 11.5335 8.35412V11.147C11.5335 11.2868 11.6474 11.4009 11.787 11.4009H15.3756C15.4142 11.4019 15.4519 11.3929 15.4865 11.3771L15.542 11.4643C15.544 11.4693 15.5469 11.4753 15.5499 11.4802C15.5499 11.4802 15.6242 11.5814 15.7004 11.7341C15.7767 11.8868 15.843 12.0842 15.843 12.226V14.0033C15.843 14.1084 15.7559 14.1937 15.645 14.1937H14.9954C14.7864 13.6026 14.222 13.1781 13.5615 13.1781C12.901 13.1781 12.3366 13.6026 12.1276 14.1937H8.40436C8.19542 13.6026 7.63099 13.1781 6.9705 13.1781C6.31002 13.1781 5.74558 13.6026 5.53664 14.1937H4.38005C4.26914 14.1937 4.182 14.1084 4.182 14.0033V7.78285C4.182 7.67772 4.26914 7.59243 4.38005 7.59243ZM12.0405 8.60801H13.6962L15.1696 10.8931H12.0405V8.60801ZM6.9705 13.6859C7.53395 13.6859 7.9845 14.1372 7.9845 14.7015C7.9845 15.2658 7.53395 15.7171 6.9705 15.7171C6.40706 15.7171 5.9565 15.2658 5.9565 14.7015C5.9565 14.1372 6.40706 13.6859 6.9705 13.6859ZM13.5615 13.6859C14.1249 13.6859 14.5755 14.1372 14.5755 14.7015C14.5755 15.2658 14.1249 15.7171 13.5615 15.7171C12.9981 15.7171 12.5475 15.2658 12.5475 14.7015C12.5475 14.1372 12.9981 13.6859 13.5615 13.6859Z" fill="black"/>
<path d="M4.38005 7.59243H12.7931C12.907 7.59243 12.9476 7.61821 13.0149 7.67177C13.0797 7.72331 13.1564 7.81526 13.2565 7.93524L13.2684 7.94947L13.3635 8.10022H11.787H11.7632H11.7395C11.6187 8.12303 11.5315 8.23014 11.5335 8.35412V11.147C11.5335 11.2868 11.6474 11.4009 11.787 11.4009H15.3756C15.4142 11.4019 15.4519 11.3929 15.4865 11.3771L15.542 11.4643C15.544 11.4693 15.5469 11.4753 15.5499 11.4802C15.5499 11.4802 15.6242 11.5814 15.7004 11.7341C15.7767 11.8868 15.843 12.0842 15.843 12.226V14.0033C15.843 14.1084 15.7559 14.1937 15.645 14.1937H14.9954C14.7864 13.6026 14.222 13.1781 13.5615 13.1781C12.901 13.1781 12.3366 13.6026 12.1276 14.1937H8.40436C8.19542 13.6026 7.63099 13.1781 6.9705 13.1781C6.31002 13.1781 5.74558 13.6026 5.53664 14.1937H4.38005C4.26914 14.1937 4.182 14.1084 4.182 14.0033V7.78285C4.182 7.67772 4.26914 7.59243 4.38005 7.59243Z" fill="white"/>
<path d="M13.5615 13.6859C14.1249 13.6859 14.5755 14.1372 14.5755 14.7015C14.5755 15.2658 14.1249 15.7171 13.5615 15.7171C12.9981 15.7171 12.5475 15.2658 12.5475 14.7015C12.5475 14.1372 12.9981 13.6859 13.5615 13.6859Z" fill="black"/>
<path d="M6.9705 13.6859C7.53395 13.6859 7.9845 14.1372 7.9845 14.7015C7.9845 15.2658 7.53395 15.7171 6.9705 15.7171C6.40706 15.7171 5.9565 15.2658 5.9565 14.7015C5.9565 14.1372 6.40706 13.6859 6.9705 13.6859Z" fill="black"/>
<path d="M8.90601 10.6807L8.02505 10.1138L8.90601 9.54703C9.00106 9.48587 9.02862 9.35882 8.96743 9.26381L8.58882 8.67577C8.55091 8.6169 8.48641 8.58175 8.41629 8.58175C8.37696 8.58175 8.33865 8.59303 8.30549 8.61437L7.5548 9.09738V8.20492C7.55478 8.09194 7.46283 8 7.34979 8H6.65021C6.53717 8 6.44522 8.09194 6.44522 8.20492V9.09736L5.69453 8.61435C5.66137 8.59301 5.62304 8.58173 5.58373 8.58173C5.51361 8.58173 5.44911 8.61688 5.41122 8.67575L5.03257 9.26379C4.97138 9.3588 4.99894 9.48585 5.09399 9.54701L5.97495 10.1138L5.09399 10.6807C4.99894 10.7418 4.97138 10.8689 5.03257 10.9639L5.41118 11.5519C5.44909 11.6108 5.51359 11.6459 5.58371 11.6459C5.62304 11.6459 5.66135 11.6347 5.69451 11.6133L6.4452 11.1303V12.0227C6.4452 12.1357 6.53717 12.2276 6.65019 12.2276H7.34977C7.46281 12.2276 7.55476 12.1357 7.55476 12.0227V11.1303L8.30545 11.6133C8.33863 11.6347 8.37692 11.6459 8.41625 11.6459C8.48635 11.6459 8.55087 11.6108 8.58878 11.5519L8.96739 10.9639C9.0286 10.8689 9.00104 10.7418 8.90601 10.6807Z" fill="#4882F3"/>
<path d="M5.93446 10.1994H6.04292C6.04734 10.1994 6.05138 10.1969 6.05336 10.193L6.10943 10.0813C6.11322 10.0738 6.1235 10.0726 6.12887 10.0791L6.22487 10.1952C6.22709 10.1978 6.23039 10.1994 6.23387 10.1994H6.46743C6.47191 10.1994 6.47599 10.202 6.47794 10.206L6.57157 10.3997C6.57677 10.4104 6.59282 10.4074 6.59374 10.3955L6.68813 9.16821L6.77342 11.2708L6.86911 10.21C6.86965 10.204 6.8747 10.1994 6.88074 10.1994H7.10039C7.10402 10.1994 7.10745 10.1977 7.10966 10.1948L7.27527 9.97893C7.2799 9.97289 7.28898 9.97282 7.2937 9.97879L7.46468 10.195C7.4669 10.1978 7.47027 10.1994 7.47385 10.1994H7.59286C7.5962 10.1994 7.59938 10.198 7.6016 10.1955L7.65261 10.138C7.65702 10.133 7.66469 10.1327 7.66946 10.1374L7.73019 10.1961C7.73237 10.1982 7.73528 10.1994 7.73831 10.1994H8.037" stroke="white" stroke-width="0.0700846" stroke-linecap="round"/>
</g>
<defs>
<clipPath id="clip0_5_88">
<rect width="20" height="20" fill="white"/>
</clipPath>
</defs>
</svg>
