<svg width="25" height="25" viewBox="0 0 25 25" fill="none" xmlns="http://www.w3.org/2000/svg">
<g clip-path="url(#clip0_1_12)">
<path d="M19.4625 0.683594H5.6352C4.33535 0.685054 3.08916 1.20206 2.17003 2.1212C1.25089 3.04033 0.733882 4.28653 0.732422 5.58638V19.4137C0.733895 20.7135 1.25091 21.9597 2.17004 22.8788C3.08918 23.7979 4.33536 24.3149 5.6352 24.3164H19.4625C20.7623 24.3149 22.0085 23.7979 22.9276 22.8788C23.8468 21.9597 24.3638 20.7135 24.3652 19.4137V5.58638C24.3638 4.28653 23.8468 3.04035 22.9276 2.12122C22.0085 1.20208 20.7623 0.685067 19.4625 0.683594ZM23.7793 19.4137C23.778 20.5582 23.3228 21.6554 22.5135 22.4647C21.7042 23.2739 20.607 23.7292 19.4625 23.7305H5.6352C4.49071 23.7292 3.39346 23.274 2.58418 22.4647C1.77489 21.6554 1.31966 20.5582 1.31836 19.4137V5.58638C1.31965 4.44187 1.77488 3.34462 2.58416 2.53533C3.39345 1.72605 4.4907 1.27082 5.6352 1.26953H19.4625C20.607 1.27084 21.7042 1.72607 22.5135 2.53535C23.3228 3.34463 23.778 4.44188 23.7793 5.58638V19.4137Z" fill="black"/>
<path d="M23.7793 19.4137C23.778 20.5582 23.3228 21.6554 22.5135 22.4647C21.7042 23.2739 20.607 23.7292 19.4625 23.7305H5.6352C4.49071 23.7292 3.39346 23.274 2.58418 22.4647C1.77489 21.6554 1.31966 20.5582 1.31836 19.4137V5.58638C1.31965 4.44187 1.77488 3.34462 2.58416 2.53533C3.39345 1.72605 4.4907 1.27082 5.6352 1.26953H19.4625C20.607 1.27084 21.7042 1.72607 22.5135 2.53535C23.3228 3.34463 23.778 4.44188 23.7793 5.58638V19.4137Z" fill="#FAC714"/>
<path d="M20.6886 14.9435L16.9176 12.5171L20.6886 10.0909C21.0954 9.82907 21.2134 9.28523 20.9515 8.87852L19.3308 6.36142C19.1685 6.1094 18.8925 5.95895 18.5923 5.95895C18.424 5.95895 18.26 6.00722 18.118 6.09858L14.9047 8.16615V4.34594C14.9046 3.86231 14.511 3.46875 14.0271 3.46875H11.0326C10.5487 3.46875 10.1551 3.86231 10.1551 4.34594V8.16606L6.94172 6.0985C6.79978 6.00713 6.63568 5.95886 6.46744 5.95886C6.16729 5.95886 5.8912 6.10931 5.72901 6.36133L4.10815 8.87843C3.84626 9.28515 3.96422 9.82899 4.37108 10.0908L8.14204 12.517L4.37108 14.9434C3.96422 15.2052 3.84626 15.749 4.10815 16.1557L5.72884 18.6728C5.89112 18.9248 6.1672 19.0753 6.46735 19.0753C6.63568 19.0753 6.79969 19.027 6.94163 18.9357L10.155 16.8681V20.6882C10.155 21.1719 10.5487 21.5653 11.0325 21.5653H14.027C14.5109 21.5653 14.9045 21.1718 14.9045 20.6882V16.8681L18.1179 18.9357C18.2599 19.027 18.4238 19.0753 18.5921 19.0753C18.8922 19.0753 19.1684 18.9249 19.3306 18.6728L20.9513 16.1557C21.2133 15.7491 21.0954 15.2053 20.6886 14.9435Z" fill="#4882F3"/>
<path d="M8 12.414H8.46426C8.48317 12.414 8.50046 12.4033 8.50894 12.3864L8.74896 11.9085C8.76516 11.8762 8.80917 11.8712 8.83218 11.899L9.2431 12.3959C9.2526 12.4073 9.26673 12.414 9.28163 12.414H10.2814C10.3005 12.414 10.318 12.425 10.3264 12.4422L10.7272 13.2714C10.7494 13.3174 10.8181 13.3044 10.8221 13.2535L11.2261 8L11.5912 17L12.0008 12.4595C12.0031 12.4337 12.0247 12.414 12.0506 12.414H12.9908C13.0063 12.414 13.021 12.4068 13.0305 12.3944L13.7394 11.4703C13.7592 11.4445 13.7981 11.4442 13.8183 11.4697L14.5502 12.395C14.5597 12.407 14.5741 12.414 14.5894 12.414H15.0988C15.1131 12.414 15.1268 12.4079 15.1362 12.3972L15.3546 12.1512C15.3735 12.1299 15.4063 12.1287 15.4267 12.1484L15.6867 12.3999C15.696 12.409 15.7085 12.414 15.7214 12.414H17" stroke="white" stroke-width="0.3" stroke-linecap="round"/>
</g>
<defs>
<clipPath id="clip0_1_12">
<rect width="25" height="25" fill="white"/>
</clipPath>
</defs>
</svg>
