<svg width="25" height="25" viewBox="0 0 25 25" fill="none" xmlns="http://www.w3.org/2000/svg">
<path d="M24.4649 24.9999C24.2503 24.9999 24.0535 24.8084 23.9691 24.4942C23.9073 24.2662 22.3609 18.8573 16.5795 17.786C15.3752 17.5581 13.9329 17.4411 12.1814 17.4207V24.1625C12.1814 24.4737 12.0736 24.7558 11.8965 24.9049C11.7203 25.0481 11.5094 25.0276 11.3454 24.8566L0.238042 13.197C0.0880942 13.0406 0 12.7776 0 12.5014C0 12.2222 0.0880942 11.9679 0.238042 11.8042L11.3501 0.14316C11.5141 -0.0336782 11.7231 -0.0453696 11.9011 0.100778C12.0792 0.249848 12.1851 0.531912 12.1851 0.834436V7.10854C14.6011 7.59959 25 10.5138 25 24.1698C25 24.5658 24.821 24.9122 24.5698 24.9911C24.5352 24.9999 24.4986 24.9999 24.4649 24.9999Z" fill="black"/>
</svg>
