<svg width="25" height="26" viewBox="0 0 25 26" fill="none" xmlns="http://www.w3.org/2000/svg">
<path d="M0.558594 6.14316C0.558594 3.33507 2.835 1.05865 5.6431 1.05865H19.3568C22.1649 1.05865 24.4413 3.33507 24.4413 6.14316V19.8568C24.4413 22.6649 22.1649 24.9413 19.3568 24.9413H5.6431C2.835 24.9413 0.558594 22.6649 0.558594 19.8568V6.14316Z" fill="#00B5FF"/>
<path d="M0.925293 6.32723C0.925293 3.61987 3.12005 1.42511 5.82742 1.42511H19.173C21.8804 1.42511 24.0751 3.61987 24.0751 6.32723V19.6728C24.0751 22.3802 21.8804 24.5749 19.173 24.5749H5.82742C3.12005 24.5749 0.925293 22.3802 0.925293 19.6728V6.32723Z" fill="white"/>
<path d="M10.5098 3.3371H14.4906V21.4319H10.5098V3.3371Z" fill="#00B5FF"/>
<path d="M19.3774 6.14178L21.3679 9.57979L5.62542 18.6272L3.635 15.1892L19.3774 6.14178Z" fill="#00B5FF"/>
<path d="M3.01855 9.57977L5.00898 6.14177L20.7514 15.1892L18.761 18.6272L3.01855 9.57977Z" fill="#00B5FF"/>
<path d="M10.7651 3.72491H14.1487V21.0841H10.7651V3.72491Z" fill="#00B5FF" stroke="white" stroke-width="0.0833537" stroke-linecap="round"/>
<path d="M19.0957 6.51556L20.861 9.4578L6.00274 18.1374L4.2374 15.1952L19.0957 6.51556Z" fill="#00B5FF" stroke="white" stroke-width="0.0835713" stroke-linecap="round"/>
<path d="M3.49902 9.53583L5.26437 6.59359L20.2698 15.2732L18.5044 18.2154L3.49902 9.53583Z" fill="#00B5FF" stroke="white" stroke-width="0.0838796" stroke-linecap="round"/>
<path d="M17.5928 12.6392L16.3106 12.1886L15.9474 12.3833L15.5754 11.9489L14.3834 14.1735L13.2372 9.88647L12.4578 12.6392L12.1368 13.4966L11.2198 11.3756L10.8254 12.0151L10.4404 12.6392L9.47761 11.9489L8.97328 12.6392L8.38122 12.3255L7.97868 12.5871L6.17653 12.6392" stroke="white" stroke-width="0.403187" stroke-linecap="round"/>
</svg>
