<svg width="25" height="25" viewBox="0 0 25 25" fill="none" xmlns="http://www.w3.org/2000/svg">
<g clip-path="url(#clip0_5_85)">
<path d="M19.4625 0.683594H5.6352C4.33535 0.685054 3.08916 1.20206 2.17003 2.1212C1.25089 3.04033 0.733882 4.28653 0.732422 5.58638V19.4137C0.733895 20.7135 1.25091 21.9597 2.17004 22.8788C3.08918 23.7979 4.33536 24.3149 5.6352 24.3164H19.4625C20.7623 24.3149 22.0085 23.7979 22.9276 22.8788C23.8468 21.9597 24.3638 20.7135 24.3652 19.4137V5.58638C24.3638 4.28653 23.8468 3.04035 22.9276 2.12122C22.0085 1.20208 20.7623 0.685067 19.4625 0.683594ZM23.7793 19.4137C23.778 20.5582 23.3228 21.6554 22.5135 22.4647C21.7042 23.2739 20.607 23.7292 19.4625 23.7305H5.6352C4.49071 23.7292 3.39346 23.274 2.58418 22.4647C1.77489 21.6554 1.31966 20.5582 1.31836 19.4137V5.58638C1.31965 4.44187 1.77488 3.34462 2.58416 2.53533C3.39345 1.72605 4.4907 1.27082 5.6352 1.26953H19.4625C20.607 1.27084 21.7042 1.72607 22.5135 2.53535C23.3228 3.34463 23.778 4.44188 23.7793 5.58638V19.4137Z" fill="black"/>
<path d="M23.7793 19.4137C23.778 20.5582 23.3228 21.6554 22.5135 22.4647C21.7042 23.2739 20.607 23.7292 19.4625 23.7305H5.6352C4.49071 23.7292 3.39346 23.274 2.58418 22.4647C1.77489 21.6554 1.31966 20.5582 1.31836 19.4137V5.58638C1.31965 4.44187 1.77488 3.34462 2.58416 2.53533C3.39345 1.72605 4.4907 1.27082 5.6352 1.26953H19.4625C20.607 1.27084 21.7042 1.72607 22.5135 2.53535C23.3228 3.34463 23.778 4.44188 23.7793 5.58638V19.4137Z" fill="#217C12"/>
<path d="M19.0415 14.4173C19.0412 14.6657 18.9424 14.904 18.7667 15.0797C18.591 15.2554 18.3528 15.3542 18.1043 15.3545H16.0681C15.8788 15.3545 15.6973 15.4297 15.5635 15.5635C15.4297 15.6973 15.3545 15.8788 15.3545 16.0681V18.1043C15.3542 18.3528 15.2554 18.591 15.0797 18.7667C14.904 18.9424 14.6657 19.0412 14.4173 19.0415H10.5827C10.3343 19.0412 10.096 18.9424 9.92034 18.7667C9.74464 18.591 9.64581 18.3528 9.64552 18.1043V16.0681C9.64552 15.8788 9.57034 15.6973 9.43651 15.5635C9.30268 15.4297 9.12117 15.3545 8.9319 15.3545H6.89571C6.64723 15.3542 6.40901 15.2554 6.23331 15.0797C6.0576 14.904 5.95877 14.6657 5.95849 14.4173V10.5827C5.95877 10.3343 6.0576 10.096 6.23331 9.92034C6.40901 9.74464 6.64723 9.64581 6.89571 9.64552H8.9319C9.12117 9.64552 9.30268 9.57034 9.43651 9.43651C9.57034 9.30268 9.64552 9.12117 9.64552 8.9319V6.89571C9.64581 6.64723 9.74464 6.40901 9.92034 6.23331C10.096 6.0576 10.3343 5.95877 10.5827 5.95849H14.4173C14.6657 5.95877 14.904 6.0576 15.0797 6.23331C15.2554 6.40901 15.3542 6.64723 15.3545 6.89571V8.9319C15.3545 9.12117 15.4297 9.30268 15.5635 9.43651C15.6973 9.57034 15.8788 9.64552 16.0681 9.64552H18.1043C18.3528 9.64581 18.591 9.74464 18.7667 9.92034C18.9424 10.096 19.0412 10.3343 19.0415 10.5827V14.4173Z" fill="white"/>
</g>
<defs>
<clipPath id="clip0_5_85">
<rect width="25" height="25" fill="white"/>
</clipPath>
</defs>
</svg>
