<svg width="25" height="25" viewBox="0 0 25 25" fill="none" xmlns="http://www.w3.org/2000/svg">
<g clip-path="url(#clip0_5_74)">
<path d="M19.4625 0.652344H5.6352C4.33535 0.653804 3.08916 1.17081 2.17003 2.08995C1.25089 3.00908 0.733882 4.25528 0.732422 5.55513V19.3824C0.733895 20.6823 1.25091 21.9284 2.17004 22.8476C3.08918 23.7667 4.33536 24.2837 5.6352 24.2852H19.4625C20.7623 24.2837 22.0085 23.7667 22.9276 22.8476C23.8468 21.9284 24.3638 20.6823 24.3652 19.3824V5.55513C24.3638 4.25528 23.8468 3.0091 22.9276 2.08997C22.0085 1.17083 20.7623 0.653817 19.4625 0.652344ZM23.7793 19.3824C23.778 20.5269 23.3228 21.6241 22.5135 22.4334C21.7042 23.2427 20.607 23.6979 19.4625 23.6992H5.6352C4.49071 23.6979 3.39346 23.2427 2.58418 22.4334C1.77489 21.6242 1.31966 20.5269 1.31836 19.3824V5.55513C1.31965 4.41062 1.77488 3.31337 2.58416 2.50408C3.39345 1.6948 4.4907 1.23957 5.6352 1.23828H19.4625C20.607 1.23959 21.7042 1.69482 22.5135 2.5041C23.3228 3.31338 23.778 4.41063 23.7793 5.55513V19.3824Z" fill="black"/>
<path d="M23.7793 19.3824C23.778 20.5269 23.3228 21.6241 22.5135 22.4334C21.7042 23.2427 20.607 23.6979 19.4625 23.6992H5.6352C4.49071 23.6979 3.39346 23.2427 2.58418 22.4334C1.77489 21.6242 1.31966 20.5269 1.31836 19.3824V5.55513C1.31965 4.41062 1.77488 3.31337 2.58416 2.50408C3.39345 1.6948 4.4907 1.23957 5.6352 1.23828H19.4625C20.607 1.23959 21.7042 1.69482 22.5135 2.5041C23.3228 3.31338 23.778 4.41063 23.7793 5.55513V19.3824Z" fill="#50D5FF"/>
<path d="M19.7754 5.22461C19.5512 5.2249 19.334 5.30218 19.16 5.44351C18.986 5.58484 18.8658 5.78164 18.8196 6.00098C18.6948 5.95854 18.5616 5.9465 18.4312 5.96587C18.3008 5.98524 18.1769 6.03545 18.0698 6.11234C17.9628 6.18922 17.8756 6.29056 17.8155 6.40792C17.7555 6.52528 17.7243 6.65528 17.7246 6.78711V7.4167C17.4028 7.57293 17.1315 7.81651 16.9415 8.11962C16.7516 8.42273 16.6507 8.77315 16.6504 9.13086V16.5039C16.6504 17.527 16.244 18.5081 15.5206 19.2315C14.7972 19.9549 13.816 20.3613 12.793 20.3613C11.7699 20.3613 10.7888 19.9549 10.0654 19.2315C9.34195 18.5081 8.93555 17.527 8.93555 16.5039V13.5645C10.0474 13.4889 11.0891 12.9942 11.8504 12.1803C12.6117 11.3665 13.0358 10.2941 13.0371 9.17969V5.07812C13.0371 5.00042 13.0062 4.92591 12.9513 4.87096C12.8964 4.81602 12.8218 4.78516 12.7441 4.78516H11.3826C11.3193 4.57373 11.1896 4.38832 11.0127 4.2564C10.8358 4.12448 10.6211 4.05306 10.4004 4.05273H9.91211C9.64016 4.05273 9.37935 4.16077 9.18705 4.35306C8.99475 4.54536 8.88672 4.80617 8.88672 5.07812C8.88672 5.35008 8.99475 5.61089 9.18705 5.80319C9.37935 5.99548 9.64016 6.10352 9.91211 6.10352H10.4004C10.6211 6.10319 10.8358 6.03177 11.0127 5.89985C11.1896 5.76793 11.3193 5.58252 11.3826 5.37109H12.4512V9.17969C12.4512 10.1898 12.0499 11.1585 11.3357 11.8728C10.6214 12.587 9.65268 12.9883 8.64258 12.9883C7.63248 12.9883 6.66375 12.587 5.9495 11.8728C5.23525 11.1585 4.83398 10.1898 4.83398 9.17969V5.37109H5.90254C5.96582 5.58252 6.09553 5.76793 6.27245 5.89985C6.44936 6.03177 6.66408 6.10319 6.88477 6.10352H7.37305C7.645 6.10352 7.90581 5.99548 8.09811 5.80319C8.29041 5.61089 8.39844 5.35008 8.39844 5.07812C8.39844 4.80617 8.29041 4.54536 8.09811 4.35306C7.90581 4.16077 7.645 4.05273 7.37305 4.05273H6.88477C6.66408 4.05306 6.44936 4.12448 6.27245 4.2564C6.09553 4.38832 5.96582 4.57373 5.90254 4.78516H4.54102C4.46332 4.78516 4.3888 4.81602 4.33386 4.87096C4.27891 4.92591 4.24805 5.00042 4.24805 5.07812V9.17969C4.2477 10.2945 4.67129 11.3677 5.43292 12.1817C6.19456 12.9958 7.23726 13.4897 8.34961 13.5635V16.5039C8.34961 17.6824 8.81775 18.8125 9.65104 19.6458C10.4843 20.4791 11.6145 20.9473 12.793 20.9473C13.9714 20.9473 15.1016 20.4791 15.9349 19.6458C16.7682 18.8125 17.2363 17.6824 17.2363 16.5039V9.13086C17.2366 8.93471 17.2805 8.74108 17.365 8.56404C17.4494 8.38701 17.5723 8.23102 17.7246 8.10742V8.25195C17.7243 8.38378 17.7555 8.51378 17.8155 8.63114C17.8756 8.74851 17.9628 8.84984 18.0698 8.92672C18.1769 9.00361 18.3008 9.05382 18.4312 9.07319C18.5616 9.09256 18.6948 9.08053 18.8196 9.03809C18.8691 9.27452 19.0045 9.4842 19.1996 9.62662C19.3948 9.76904 19.6357 9.83409 19.876 9.8092C20.1163 9.78431 20.3388 9.67124 20.5006 9.49184C20.6624 9.31245 20.7519 9.07946 20.752 8.83789V6.20117C20.7517 5.94226 20.6487 5.69404 20.4656 5.51097C20.2825 5.32789 20.0343 5.22491 19.7754 5.22461ZM10.4004 5.51758H9.91211C9.79556 5.51758 9.68378 5.47128 9.60137 5.38887C9.51896 5.30645 9.47266 5.19468 9.47266 5.07812C9.47266 4.96157 9.51896 4.8498 9.60137 4.76738C9.68378 4.68497 9.79556 4.63867 9.91211 4.63867H10.4004C10.5169 4.63867 10.6287 4.68497 10.7111 4.76738C10.7935 4.8498 10.8398 4.96157 10.8398 5.07812C10.8398 5.19468 10.7935 5.30645 10.7111 5.38887C10.6287 5.47128 10.5169 5.51758 10.4004 5.51758ZM6.88477 4.63867H7.37305C7.4896 4.63867 7.60137 4.68497 7.68379 4.76738C7.7662 4.8498 7.8125 4.96157 7.8125 5.07812C7.8125 5.19468 7.7662 5.30645 7.68379 5.38887C7.60137 5.47128 7.4896 5.51758 7.37305 5.51758H6.88477C6.76822 5.51758 6.65644 5.47128 6.57403 5.38887C6.49161 5.30645 6.44531 5.19468 6.44531 5.07812C6.44531 4.96157 6.49161 4.8498 6.57403 4.76738C6.65644 4.68497 6.76822 4.63867 6.88477 4.63867ZM18.5547 8.49609C18.49 8.49602 18.4279 8.47027 18.3821 8.4245C18.3364 8.37873 18.3106 8.31668 18.3105 8.25195V6.78711C18.3105 6.72236 18.3363 6.66026 18.3821 6.61448C18.4278 6.56869 18.4899 6.54297 18.5547 6.54297C18.6194 6.54297 18.6815 6.56869 18.7273 6.61448C18.7731 6.66026 18.7988 6.72236 18.7988 6.78711V8.25195C18.7988 8.31668 18.773 8.37873 18.7272 8.4245C18.6815 8.47027 18.6194 8.49602 18.5547 8.49609ZM20.166 8.83789C20.166 8.94149 20.1249 9.04085 20.0516 9.1141C19.9783 9.18736 19.879 9.22852 19.7754 9.22852C19.6718 9.22852 19.5724 9.18736 19.4992 9.1141C19.4259 9.04085 19.3848 8.94149 19.3848 8.83789V6.20117C19.3848 6.09757 19.4259 5.99821 19.4992 5.92496C19.5724 5.8517 19.6718 5.81055 19.7754 5.81055C19.879 5.81055 19.9783 5.8517 20.0516 5.92496C20.1249 5.99821 20.166 6.09757 20.166 6.20117V8.83789Z" fill="black"/>
<path d="M6.88477 4.63867H7.37305C7.4896 4.63867 7.60137 4.68497 7.68379 4.76738C7.7662 4.8498 7.8125 4.96157 7.8125 5.07812C7.8125 5.19468 7.7662 5.30645 7.68379 5.38887C7.60137 5.47128 7.4896 5.51758 7.37305 5.51758H6.88477C6.76822 5.51758 6.65644 5.47128 6.57403 5.38887C6.49161 5.30645 6.44531 5.19468 6.44531 5.07812C6.44531 4.96157 6.49161 4.8498 6.57403 4.76738C6.65644 4.68497 6.76822 4.63867 6.88477 4.63867Z" fill="white"/>
<path d="M10.4004 5.51758H9.91211C9.79556 5.51758 9.68378 5.47128 9.60137 5.38887C9.51896 5.30645 9.47266 5.19468 9.47266 5.07812C9.47266 4.96157 9.51896 4.8498 9.60137 4.76738C9.68378 4.68497 9.79556 4.63867 9.91211 4.63867H10.4004C10.5169 4.63867 10.6287 4.68497 10.7111 4.76738C10.7935 4.8498 10.8398 4.96157 10.8398 5.07812C10.8398 5.19468 10.7935 5.30645 10.7111 5.38887C10.6287 5.47128 10.5169 5.51758 10.4004 5.51758Z" fill="white"/>
<path d="M20.166 8.83789C20.166 8.94149 20.1249 9.04085 20.0516 9.1141C19.9783 9.18736 19.879 9.22852 19.7754 9.22852C19.6718 9.22852 19.5724 9.18736 19.4992 9.1141C19.4259 9.04085 19.3848 8.94149 19.3848 8.83789V6.20117C19.3848 6.09757 19.4259 5.99821 19.4992 5.92496C19.5724 5.8517 19.6718 5.81055 19.7754 5.81055C19.879 5.81055 19.9783 5.8517 20.0516 5.92496C20.1249 5.99821 20.166 6.09757 20.166 6.20117V8.83789Z" fill="white"/>
<path d="M18.5547 8.49609C18.49 8.49602 18.4279 8.47027 18.3821 8.4245C18.3364 8.37873 18.3106 8.31668 18.3105 8.25195V6.78711C18.3105 6.72236 18.3363 6.66026 18.3821 6.61448C18.4278 6.56869 18.4899 6.54297 18.5547 6.54297C18.6194 6.54297 18.6815 6.56869 18.7273 6.61448C18.7731 6.66026 18.7988 6.72236 18.7988 6.78711V8.25195C18.7988 8.31668 18.773 8.37873 18.7272 8.4245C18.6815 8.47027 18.6194 8.49602 18.5547 8.49609Z" fill="white"/>
</g>
<defs>
<clipPath id="clip0_5_74">
<rect width="25" height="25" fill="white"/>
</clipPath>
</defs>
</svg>
