<svg width="25" height="25" viewBox="0 0 25 25" fill="none" xmlns="http://www.w3.org/2000/svg">
<g clip-path="url(#clip0_2_47)">
<path d="M19.4625 0.621094H5.6352C4.33535 0.622554 3.08916 1.13956 2.17003 2.0587C1.25089 2.97783 0.733882 4.22403 0.732422 5.52388V19.3512C0.733895 20.651 1.25091 21.8972 2.17004 22.8163C3.08918 23.7354 4.33536 24.2524 5.6352 24.2539H19.4625C20.7623 24.2524 22.0085 23.7354 22.9276 22.8163C23.8468 21.8972 24.3638 20.651 24.3652 19.3512V5.52388C24.3638 4.22403 23.8468 2.97785 22.9276 2.05872C22.0085 1.13958 20.7623 0.622567 19.4625 0.621094ZM23.7793 19.3512C23.778 20.4957 23.3228 21.5929 22.5135 22.4022C21.7042 23.2114 20.607 23.6667 19.4625 23.668H5.6352C4.49071 23.6667 3.39346 23.2115 2.58418 22.4022C1.77489 21.5929 1.31966 20.4957 1.31836 19.3512V5.52388C1.31965 4.37937 1.77488 3.28212 2.58416 2.47283C3.39345 1.66355 4.4907 1.20832 5.6352 1.20703H19.4625C20.607 1.20834 21.7042 1.66357 22.5135 2.47285C23.3228 3.28213 23.778 4.37938 23.7793 5.52388V19.3512Z" fill="black"/>
<path d="M23.7793 19.3512C23.778 20.4957 23.3228 21.5929 22.5135 22.4022C21.7042 23.2114 20.607 23.6667 19.4625 23.668H5.6352C4.49071 23.6667 3.39346 23.2115 2.58418 22.4022C1.77489 21.5929 1.31966 20.4957 1.31836 19.3512V5.52388C1.31965 4.37937 1.77488 3.28212 2.58416 2.47283C3.39345 1.66355 4.4907 1.20832 5.6352 1.20703H19.4625C20.607 1.20834 21.7042 1.66357 22.5135 2.47285C23.3228 3.28213 23.778 4.37938 23.7793 5.52388V19.3512Z" fill="#50D100"/>
<path d="M20.7031 10.0586H16.3086V7.37305C16.3086 7.33124 16.2996 7.28991 16.2823 7.25184C16.265 7.21377 16.2398 7.17985 16.2083 7.15235L12.7415 4.12501C12.6881 4.07841 12.6197 4.05273 12.5488 4.05273C12.478 4.05273 12.4095 4.07841 12.3562 4.12501L8.88936 7.15235C8.85786 7.17985 8.83261 7.21377 8.81531 7.25184C8.79801 7.28991 8.78906 7.33124 8.78906 7.37305V15.625H4.39453C4.31683 15.625 4.24231 15.6559 4.18737 15.7108C4.13243 15.7658 4.10156 15.8403 4.10156 15.918V17.1387C4.10156 17.2164 4.13243 17.2909 4.18737 17.3458C4.24231 17.4008 4.31683 17.4316 4.39453 17.4316H4.73633V20.6543C4.73633 20.732 4.76719 20.8065 4.82214 20.8615C4.87708 20.9164 4.9516 20.9473 5.0293 20.9473C5.107 20.9473 5.18151 20.9164 5.23646 20.8615C5.2914 20.8065 5.32227 20.732 5.32227 20.6543V17.4316H8.78906V20.6543C8.78906 20.732 8.81993 20.8065 8.87487 20.8615C8.92981 20.9164 9.00433 20.9473 9.08203 20.9473H16.0156C16.0636 20.9344 16.1141 20.9344 16.1621 20.9473H20.7031C20.7808 20.9473 20.8553 20.9164 20.9103 20.8615C20.9652 20.8065 20.9961 20.732 20.9961 20.6543V10.3516C20.9961 10.2739 20.9652 10.1994 20.9103 10.1444C20.8553 10.0895 20.7808 10.0586 20.7031 10.0586ZM12.5488 4.73468L15.5143 7.32423H9.58335L12.5488 4.73468ZM4.6875 16.8457V16.2109H8.78906V16.8457H4.6875ZM13.7695 20.3613H11.2305V18.0176C11.2305 17.6809 11.3642 17.358 11.6023 17.1199C11.8404 16.8818 12.1633 16.7481 12.5 16.7481C12.8367 16.7481 13.1596 16.8818 13.3977 17.1199C13.6358 17.358 13.7695 17.6809 13.7695 18.0176V20.3613ZM14.3555 20.3613V18.0176C14.3555 17.5255 14.16 17.0535 13.812 16.7056C13.464 16.3576 12.9921 16.1621 12.5 16.1621C12.0079 16.1621 11.536 16.3576 11.188 16.7056C10.84 17.0535 10.6445 17.5255 10.6445 18.0176V20.3613H9.375V7.91016H15.7227V20.3613H14.3555ZM20.4102 20.3613H16.3086V10.6445H20.4102V20.3613Z" fill="black"/>
<path d="M14.3555 20.3613V18.0176C14.3555 17.5255 14.16 17.0535 13.812 16.7056C13.464 16.3576 12.9921 16.1621 12.5 16.1621C12.0079 16.1621 11.536 16.3576 11.188 16.7056C10.84 17.0535 10.6445 17.5255 10.6445 18.0176V20.3613H9.375V7.91016H15.7227V20.3613H14.3555Z" fill="white"/>
<path d="M20.4102 20.3613H16.3086V10.6445H20.4102V20.3613Z" fill="white"/>
<path d="M12.5488 4.73468L15.5143 7.32423H9.58335L12.5488 4.73468Z" fill="white"/>
<path d="M13.7695 20.3613H11.2305V18.0176C11.2305 17.6809 11.3642 17.358 11.6023 17.1199C11.8404 16.8818 12.1633 16.7481 12.5 16.7481C12.8367 16.7481 13.1596 16.8818 13.3977 17.1199C13.6358 17.358 13.7695 17.6809 13.7695 18.0176V20.3613Z" fill="white"/>
<path d="M4.6875 16.8457V16.2109H8.78906V16.8457H4.6875Z" fill="white"/>
<path d="M13.9766 10.2415H13.7331V9.99795C13.7329 9.80496 13.6561 9.61993 13.5197 9.48347C13.3832 9.347 13.1982 9.27024 13.0052 9.27002H11.9948C11.8018 9.27024 11.6168 9.347 11.4803 9.48347C11.3439 9.61993 11.2671 9.80496 11.2669 9.99795V10.2415H11.0234C10.8304 10.2417 10.6454 10.3184 10.5089 10.4549C10.3724 10.5914 10.2957 10.7764 10.2955 10.9694V11.9797C10.2957 12.1727 10.3724 12.3578 10.5089 12.4942C10.6454 12.6307 10.8304 12.7074 11.0234 12.7077H11.2669V12.9512C11.2671 13.1442 11.3439 13.3292 11.4803 13.4657C11.6168 13.6021 11.8018 13.6789 11.9948 13.6791H13.0052C13.1982 13.6789 13.3832 13.6021 13.5197 13.4657C13.6561 13.3292 13.7329 13.1442 13.7331 12.9512V12.7077H13.9766C14.1696 12.7074 14.3546 12.6307 14.4911 12.4942C14.6276 12.3578 14.7043 12.1727 14.7045 11.9797V10.9694C14.7043 10.7764 14.6276 10.5914 14.4911 10.4549C14.3546 10.3184 14.1696 10.2417 13.9766 10.2415ZM14.1186 11.9797C14.1186 12.0174 14.1036 12.0535 14.077 12.0801C14.0504 12.1067 14.0143 12.1217 13.9766 12.1217H13.4401C13.3624 12.1217 13.2879 12.1526 13.233 12.2075C13.178 12.2625 13.1472 12.337 13.1472 12.4147V12.9512C13.1471 12.9888 13.1322 13.0249 13.1055 13.0515C13.0789 13.0782 13.0428 13.0931 13.0052 13.0932H11.9948C11.9572 13.0931 11.9211 13.0782 11.8945 13.0515C11.8678 13.0249 11.8529 12.9888 11.8528 12.9512V12.4147C11.8528 12.337 11.822 12.2625 11.767 12.2075C11.7121 12.1526 11.6376 12.1217 11.5599 12.1217H11.0234C10.9857 12.1217 10.9496 12.1067 10.923 12.0801C10.8964 12.0535 10.8814 12.0174 10.8814 11.9797V10.9694C10.8814 10.9317 10.8964 10.8956 10.923 10.869C10.9496 10.8424 10.9857 10.8274 11.0234 10.8274H11.5599C11.6376 10.8274 11.7121 10.7965 11.767 10.7416C11.822 10.6866 11.8528 10.6121 11.8528 10.5344V9.99795C11.8529 9.9603 11.8678 9.92421 11.8945 9.89759C11.9211 9.87097 11.9572 9.856 11.9948 9.85596H13.0052C13.0428 9.856 13.0789 9.87097 13.1055 9.89759C13.1322 9.92421 13.1471 9.9603 13.1472 9.99795V10.5344C13.1472 10.6121 13.178 10.6866 13.233 10.7416C13.2879 10.7965 13.3624 10.8274 13.4401 10.8274H13.9766C14.0143 10.8274 14.0504 10.8424 14.077 10.869C14.1036 10.8956 14.1186 10.9317 14.1186 10.9694V11.9797Z" fill="black"/>
</g>
<defs>
<clipPath id="clip0_2_47">
<rect width="25" height="25" fill="white"/>
</clipPath>
</defs>
</svg>
