<svg width="25" height="25" viewBox="0 0 25 25" fill="none" xmlns="http://www.w3.org/2000/svg">
<g clip-path="url(#clip0_2_28)">
<path d="M19.4625 0.683594H5.6352C4.33535 0.685054 3.08916 1.20206 2.17003 2.1212C1.25089 3.04033 0.733882 4.28653 0.732422 5.58638V19.4137C0.733895 20.7135 1.25091 21.9597 2.17004 22.8788C3.08918 23.7979 4.33536 24.3149 5.6352 24.3164H19.4625C20.7623 24.3149 22.0085 23.7979 22.9276 22.8788C23.8468 21.9597 24.3638 20.7135 24.3652 19.4137V5.58638C24.3638 4.28653 23.8468 3.04035 22.9276 2.12122C22.0085 1.20208 20.7623 0.685067 19.4625 0.683594ZM23.7793 19.4137C23.778 20.5582 23.3228 21.6554 22.5135 22.4647C21.7042 23.2739 20.607 23.7292 19.4625 23.7305H5.6352C4.49071 23.7292 3.39346 23.274 2.58418 22.4647C1.77489 21.6554 1.31966 20.5582 1.31836 19.4137V5.58638C1.31965 4.44187 1.77488 3.34462 2.58416 2.53533C3.39345 1.72605 4.4907 1.27082 5.6352 1.26953H19.4625C20.607 1.27084 21.7042 1.72607 22.5135 2.53535C23.3228 3.34463 23.778 4.44188 23.7793 5.58638V19.4137Z" fill="black"/>
<path d="M23.7793 19.4137C23.778 20.5582 23.3228 21.6554 22.5135 22.4647C21.7042 23.2739 20.607 23.7292 19.4625 23.7305H5.6352C4.49071 23.7292 3.39346 23.274 2.58418 22.4647C1.77489 21.6554 1.31966 20.5582 1.31836 19.4137V5.58638C1.31965 4.44187 1.77488 3.34462 2.58416 2.53533C3.39345 1.72605 4.4907 1.27082 5.6352 1.26953H19.4625C20.607 1.27084 21.7042 1.72607 22.5135 2.53535C23.3228 3.34463 23.778 4.44188 23.7793 5.58638V19.4137Z" fill="#FF2F2F"/>
<path d="M19.4234 9.9506C18.4518 9.9506 17.8483 10.6917 17.8483 11.8847C17.8483 12.775 18.4237 13.8754 19.1305 14.1253V18.0645C19.1305 18.5921 18.9209 19.098 18.5478 19.4711C18.1748 19.8441 17.6688 20.0537 17.1413 20.0537C16.6137 20.0537 16.1077 19.8441 15.7347 19.4711C15.3616 19.098 15.1521 18.5921 15.1521 18.0645V16.8446H15.9365C16.1636 16.8443 16.3814 16.754 16.542 16.5934C16.7026 16.4328 16.793 16.215 16.7932 15.9879V10.7561C16.793 10.5289 16.7026 10.3112 16.542 10.1505C16.3814 9.98993 16.1636 9.89958 15.9365 9.89933H9.47383C9.24669 9.89958 9.02892 9.98993 8.86831 10.1505C8.70769 10.3112 8.61735 10.5289 8.61709 10.7561V15.9879C8.61735 16.215 8.70769 16.4328 8.86831 16.5934C9.02892 16.754 9.24669 16.8443 9.47383 16.8446H13.5273C13.453 17.7191 13.0533 18.534 12.4073 19.1282C11.7614 19.7224 10.916 20.0527 10.0383 20.0538H9.62817C8.69966 20.0528 7.80947 19.6835 7.15292 19.027C6.49636 18.3704 6.12707 17.4802 6.12607 16.5517V8.93165C6.31349 8.89554 6.48252 8.79535 6.60416 8.64827C6.7258 8.50119 6.79248 8.31637 6.79277 8.1255V7.7506C7.13241 7.54164 7.39457 7.22753 7.53941 6.85599C7.68426 6.48446 7.70388 6.0758 7.5953 5.69209C7.48672 5.30839 7.25586 4.97061 6.93781 4.73007C6.61975 4.48953 6.23188 4.35938 5.83311 4.35938C5.43433 4.35938 5.04646 4.48953 4.7284 4.73007C4.41035 4.97061 4.17949 5.30839 4.07091 5.69209C3.96233 6.0758 3.98195 6.48446 4.1268 6.85599C4.27164 7.22753 4.5338 7.54164 4.87344 7.7506V8.1254C4.87374 8.31627 4.94043 8.50108 5.06207 8.64816C5.18371 8.79524 5.35272 8.89543 5.54014 8.93155V16.5516C5.54134 17.6355 5.9724 18.6745 6.73877 19.441C7.50513 20.2074 8.5442 20.6385 9.62803 20.6398H10.0382C11.0712 20.6384 12.0655 20.2465 12.8215 19.5426C13.5776 18.8387 14.0395 17.875 14.1146 16.8447H14.566V18.0646C14.566 18.4028 14.6326 18.7376 14.762 19.0501C14.8914 19.3625 15.0811 19.6464 15.3202 19.8855C15.5593 20.1246 15.8432 20.3143 16.1556 20.4437C16.4681 20.5731 16.8029 20.6398 17.1411 20.6398C17.4793 20.6398 17.8141 20.5731 18.1266 20.4437C18.439 20.3143 18.7229 20.1246 18.962 19.8855C19.2011 19.6464 19.3908 19.3625 19.5202 19.0501C19.6497 18.7376 19.7163 18.4028 19.7163 18.0646V14.1253C20.423 13.8754 20.9984 12.775 20.9984 11.8847C20.9986 10.6917 20.395 9.9506 19.4234 9.9506ZM5.83296 4.9464C6.1153 4.94637 6.38927 5.04227 6.60997 5.21836C6.83067 5.39446 6.985 5.64031 7.04765 5.91561C7.11031 6.19091 7.07759 6.47933 6.95484 6.73359C6.83209 6.98786 6.62661 7.19288 6.37207 7.31505C6.20399 7.39636 6.01958 7.43829 5.83286 7.43766C5.80684 7.43766 5.78096 7.43668 5.75522 7.43517C5.6183 7.42714 5.48369 7.39616 5.35703 7.34352L5.35527 7.34273C5.33438 7.33398 5.31367 7.32467 5.29316 7.3148C5.03886 7.19246 4.83363 6.98739 4.71109 6.73317C4.58855 6.47895 4.55597 6.19066 4.61867 5.91551C4.68138 5.64036 4.83566 5.39465 5.05625 5.21863C5.27683 5.04261 5.55065 4.94671 5.83286 4.94664L5.83296 4.9464ZM5.45923 8.1254V7.98556C5.47139 7.9881 5.48364 7.9899 5.496 7.9922C5.50996 7.99478 5.52393 7.99747 5.53799 7.99972C5.55475 8.00243 5.57165 8.00463 5.58863 8.00684C5.58965 8.00697 5.59068 8.0071 5.5917 8.00724C5.60669 8.00919 5.62168 8.01139 5.63682 8.01295C5.65415 8.0148 5.67158 8.01598 5.68901 8.01729C5.70454 8.01852 5.71997 8.02003 5.73555 8.02081C5.75664 8.02189 5.77773 8.02218 5.79902 8.02257C5.8104 8.02257 5.82173 8.0235 5.8332 8.0235C5.84468 8.0235 5.85669 8.02271 5.86851 8.02252C5.88921 8.02213 5.90991 8.02189 5.93057 8.02081C5.94673 8.01998 5.96274 8.01842 5.97881 8.01715C5.99487 8.01588 6.0124 8.01476 6.0291 8.013C6.04482 8.01134 6.0604 8.00909 6.07603 8.00704L6.07608 8.00703C6.0933 8.00479 6.11052 8.00255 6.12759 7.99981C6.14224 7.99747 6.15688 7.99464 6.17153 7.9919C6.1833 7.98971 6.19517 7.988 6.20684 7.98556V8.1254C6.20677 8.18778 6.18197 8.24758 6.13786 8.2917C6.09376 8.33581 6.03396 8.36063 5.97158 8.3607H5.69468C5.63229 8.36066 5.57246 8.33588 5.52832 8.29178C5.48418 8.24769 5.45933 8.18789 5.45923 8.1255V8.1254ZM9.20303 15.9878V10.7561C9.2031 10.6843 9.23166 10.6154 9.28243 10.5647C9.3332 10.5139 9.40203 10.4853 9.47383 10.4853H15.9365C16.0083 10.4853 16.0771 10.5139 16.1279 10.5647C16.1786 10.6154 16.2072 10.6843 16.2073 10.7561V15.9879C16.2072 16.0596 16.1786 16.1285 16.1279 16.1792C16.0771 16.23 16.0083 16.2586 15.9365 16.2587H9.47383C9.40204 16.2586 9.33321 16.23 9.28244 16.1792C9.23168 16.1285 9.20312 16.0596 9.20303 15.9879V15.9878ZM19.4234 13.5917C19.0239 13.5917 18.4343 12.6924 18.4343 11.8846C18.4343 11.3811 18.5628 10.5364 19.4234 10.5364C20.2841 10.5364 20.4126 11.3812 20.4126 11.8846C20.4126 12.6925 19.823 13.5918 19.4234 13.5918V13.5917Z" fill="black"/>
<path d="M9.20303 15.9878V10.7561C9.2031 10.6843 9.23166 10.6154 9.28243 10.5647C9.3332 10.5139 9.40203 10.4853 9.47383 10.4853H15.9365C16.0083 10.4853 16.0771 10.5139 16.1279 10.5647C16.1786 10.6154 16.2072 10.6843 16.2073 10.7561V15.9879C16.2072 16.0596 16.1786 16.1285 16.1279 16.1792C16.0771 16.23 16.0083 16.2586 15.9365 16.2587H9.47383C9.40204 16.2586 9.33321 16.23 9.28244 16.1792C9.23168 16.1285 9.20312 16.0596 9.20303 15.9879V15.9878Z" fill="white"/>
<path d="M19.4234 13.5917C19.0239 13.5917 18.4343 12.6924 18.4343 11.8846C18.4343 11.3811 18.5628 10.5364 19.4234 10.5364C20.2841 10.5364 20.4126 11.3812 20.4126 11.8846C20.4126 12.6925 19.823 13.5918 19.4234 13.5918V13.5917Z" fill="white"/>
<path d="M5.83296 4.9464C6.1153 4.94637 6.38927 5.04227 6.60997 5.21836C6.83067 5.39446 6.985 5.64031 7.04765 5.91561C7.11031 6.19091 7.07759 6.47933 6.95484 6.73359C6.83209 6.98786 6.62661 7.19288 6.37207 7.31505C6.20399 7.39636 6.01958 7.43829 5.83286 7.43766C5.80684 7.43766 5.78096 7.43668 5.75522 7.43517C5.6183 7.42714 5.48369 7.39616 5.35703 7.34352L5.35527 7.34273C5.33438 7.33398 5.31367 7.32467 5.29316 7.3148C5.03886 7.19246 4.83363 6.98739 4.71109 6.73317C4.58855 6.47895 4.55597 6.19066 4.61867 5.91551C4.68138 5.64036 4.83566 5.39465 5.05625 5.21863C5.27683 5.04261 5.55065 4.94671 5.83286 4.94664L5.83296 4.9464Z" fill="white"/>
<path d="M5.45923 8.1254V7.98556C5.47139 7.9881 5.48364 7.9899 5.496 7.9922C5.50996 7.99478 5.52393 7.99747 5.53799 7.99972C5.55475 8.00243 5.57165 8.00463 5.58863 8.00684L5.5917 8.00724C5.60669 8.00919 5.62168 8.01139 5.63682 8.01295C5.65415 8.0148 5.67158 8.01598 5.68901 8.01729C5.70454 8.01852 5.71997 8.02003 5.73555 8.02081C5.75664 8.02189 5.77773 8.02218 5.79902 8.02257C5.8104 8.02257 5.82173 8.0235 5.8332 8.0235C5.84468 8.0235 5.85669 8.02271 5.86851 8.02252C5.88921 8.02213 5.90991 8.02189 5.93057 8.02081C5.94673 8.01998 5.96274 8.01842 5.97881 8.01715C5.99487 8.01588 6.0124 8.01476 6.0291 8.013C6.04482 8.01134 6.0604 8.00909 6.07603 8.00704L6.07608 8.00703C6.0933 8.00479 6.11052 8.00255 6.12759 7.99981C6.14224 7.99747 6.15688 7.99464 6.17153 7.9919C6.1833 7.98971 6.19517 7.988 6.20684 7.98556V8.1254C6.20677 8.18778 6.18197 8.24758 6.13786 8.2917C6.09376 8.33581 6.03396 8.36063 5.97158 8.3607H5.69468C5.63229 8.36066 5.57246 8.33588 5.52832 8.29178C5.48418 8.24769 5.45933 8.18789 5.45923 8.1255V8.1254Z" fill="white"/>
<path d="M15.6137 15.6283V14.2437C15.6137 14.166 15.5828 14.0914 15.5279 14.0365C15.4729 13.9815 15.3984 13.9507 15.3207 13.9507H12.9616C12.8839 13.9507 12.8094 13.9815 12.7544 14.0365C12.6995 14.0914 12.6686 14.166 12.6686 14.2437V15.6283C12.6686 15.706 12.6995 15.7805 12.7544 15.8355C12.8094 15.8904 12.8839 15.9213 12.9616 15.9213H15.3207C15.3984 15.9213 15.4729 15.8904 15.5279 15.8355C15.5828 15.7805 15.6137 15.706 15.6137 15.6283ZM15.0277 15.3354H13.2545V14.5366H15.0277V15.3354Z" fill="black"/>
<path d="M13.4229 11.9211H15.3205C15.3982 11.9211 15.4727 11.8903 15.5276 11.8353C15.5826 11.7804 15.6134 11.7059 15.6134 11.6282C15.6134 11.5505 15.5826 11.476 15.5276 11.421C15.4727 11.3661 15.3982 11.3352 15.3205 11.3352H13.4229C13.3452 11.3352 13.2706 11.3661 13.2157 11.421C13.1607 11.476 13.1299 11.5505 13.1299 11.6282C13.1299 11.7059 13.1607 11.7804 13.2157 11.8353C13.2706 11.8903 13.3452 11.9211 13.4229 11.9211Z" fill="black"/>
<path d="M15.3207 12.4634H14.3975C14.3198 12.4634 14.2453 12.4942 14.1904 12.5492C14.1354 12.6041 14.1045 12.6786 14.1045 12.7563C14.1045 12.834 14.1354 12.9086 14.1904 12.9635C14.2453 13.0184 14.3198 13.0493 14.3975 13.0493H15.3207C15.3984 13.0493 15.4729 13.0184 15.5279 12.9635C15.5828 12.9086 15.6137 12.834 15.6137 12.7563C15.6137 12.6786 15.5828 12.6041 15.5279 12.5492C15.4729 12.4942 15.3984 12.4634 15.3207 12.4634Z" fill="black"/>
</g>
<defs>
<clipPath id="clip0_2_28">
<rect width="25" height="25" fill="white"/>
</clipPath>
</defs>
</svg>
