<svg width="25" height="26" viewBox="0 0 25 26" fill="none" xmlns="http://www.w3.org/2000/svg">
<g clip-path="url(#clip0_1_29)">
<path d="M0.385254 6.04137C0.385254 3.19157 2.69547 0.881348 5.54527 0.881348H19.4626C22.3124 0.881348 24.6226 3.19157 24.6226 6.04137V19.9587C24.6226 22.8085 22.3124 25.1187 19.4626 25.1187H5.54527C2.69547 25.1187 0.385254 22.8085 0.385254 19.9587V6.04137Z" fill="#B76E6E" stroke="#5B5959" stroke-width="0.246" stroke-linecap="round"/>
<path opacity="0.99" d="M15.8503 7.02795C17.6928 7.02795 19.2003 8.64048 19.2003 10.6111C19.2003 16.0904 12.5003 18.8226 12.5003 18.9719C12.5003 18.8228 5.80029 16.1054 5.80029 10.6111C5.80029 8.62557 7.30779 7.02795 9.15029 7.02795C11.0095 7.02795 12.5003 8.11486 12.5003 10.1004C12.5003 8.11486 13.991 7.02795 15.8503 7.02795Z" fill="#FFC5C5" fill-opacity="0.9"/>
<path opacity="0.36" d="M16.4787 6.05316C18.665 6.05316 20.4537 7.96653 20.4537 10.3048C20.4537 16.8063 12.5037 20.0483 12.5037 20.2254C12.5037 20.0485 4.55371 16.8242 4.55371 10.3048C4.55371 7.94884 6.34246 6.05316 8.52871 6.05316C10.7348 6.05316 12.5037 7.34285 12.5037 9.69883C12.5037 7.34285 14.2726 6.05316 16.4787 6.05316Z" fill="#FFC5C5"/>
<path opacity="0.15" d="M17.2584 5.42761C19.7265 5.42761 21.7459 7.58767 21.7459 10.2274C21.7459 17.5672 12.7709 21.2272 12.7709 21.4271C12.7709 21.2274 3.7959 17.5874 3.7959 10.2274C3.7959 7.5677 5.81527 5.42761 8.2834 5.42761C10.774 5.42761 12.7709 6.88358 12.7709 9.54332C12.7709 6.88358 14.7678 5.42761 17.2584 5.42761Z" fill="#FFC5C5"/>
<path d="M18.624 13.2092L17.8716 12.5189L17.1821 13.2092L16.4598 12.5189L15.1809 14.7435L13.9512 10.4565L13.115 13.2092L12.7707 14.0666L11.7869 11.9457L10.9507 13.2092L9.9178 12.5189L9.37673 13.2092L8.78648 12.8031L7.95029 13.2092H6.37628" stroke="#FF0000" stroke-width="0.104403" stroke-linecap="round"/>
</g>
<defs>
<clipPath id="clip0_1_29">
<rect width="25" height="25" fill="white" transform="translate(0 0.5)"/>
</clipPath>
</defs>
</svg>
