<svg width="20" height="20" viewBox="0 0 20 20" fill="none" xmlns="http://www.w3.org/2000/svg">
<g clip-path="url(#clip0_102_163)">
<path d="M10 19.6645C15.3375 19.6645 19.6644 15.3376 19.6644 10.0001C19.6644 4.6626 15.3375 0.335693 10 0.335693C4.66249 0.335693 0.335587 4.6626 0.335587 10.0001C0.335587 15.3376 4.66249 19.6645 10 19.6645Z" fill="#FFDC64"/>
<path d="M11.7599 17.9045C6.42238 17.9045 2.09547 13.5776 2.09547 8.24011C2.09547 6.02003 2.8459 3.97624 4.10441 2.34448C1.81313 4.11167 0.335587 6.88253 0.335587 9.99995C0.335587 15.3375 4.66254 19.6644 10 19.6644C13.1174 19.6644 15.8883 18.1868 17.6555 15.8955C16.0237 17.1541 13.98 17.9045 11.7599 17.9045Z" fill="#FFC850"/>
<path d="M8.75446 7.82793L6.08942 3.16602C3.72156 4.52391 2.12528 7.07469 2.12528 9.99996C2.1234 10.0022 5.94 10.0036 7.13863 10.0012C7.33156 10.0008 7.49094 9.8575 7.51649 9.66621C7.6216 8.87852 8.09375 8.20766 8.75446 7.82793Z" fill="#464655"/>
<path d="M11.2457 12.1719C10.8785 12.383 10.4539 12.5055 10 12.5055C9.54524 12.5055 9.12 12.3825 8.75235 12.1707C7.96668 13.5408 7.00985 15.2125 6.08348 16.8305C7.23731 17.4935 8.57375 17.8746 10 17.8746C11.4266 17.8746 12.7632 17.4933 13.9172 16.83L11.2457 12.1719Z" fill="#464655"/>
<path d="M11.2455 7.82793L13.9106 3.16602C16.2784 4.52391 17.8747 7.07469 17.8747 9.99996C17.8766 10.0022 14.06 10.0036 12.8614 10.0012C12.6684 10.0008 12.5091 9.8575 12.4835 9.66621C12.3784 8.87852 11.9062 8.20766 11.2455 7.82793Z" fill="#464655"/>
<path d="M10 11.0737C10.5931 11.0737 11.0738 10.5929 11.0738 9.99985C11.0738 9.40679 10.5931 8.92603 10 8.92603C9.40695 8.92603 8.92618 9.40679 8.92618 9.99985C8.92618 10.5929 9.40695 11.0737 10 11.0737Z" fill="#464655"/>
<path d="M17.0711 2.92891C15.1823 1.0402 12.6711 0 10 0C7.32891 0 4.81766 1.0402 2.92891 2.92891C1.0402 4.81766 0 7.32891 0 10C0 12.6711 1.0402 15.1823 2.92891 17.0711C4.81766 18.9598 7.32891 20 10 20C12.6711 20 15.1823 18.9598 17.0711 17.0711C18.9598 15.1823 20 12.6711 20 10C20 7.32891 18.9598 4.81766 17.0711 2.92891ZM10 19.3289C4.85605 19.3289 0.671133 15.1439 0.671133 10C0.671133 4.85605 4.85605 0.671133 10 0.671133C15.1439 0.671133 19.3289 4.85605 19.3289 10C19.3289 15.1439 15.1439 19.3289 10 19.3289Z" fill="black"/>
<path d="M7.83036 10.0069C7.83036 10.0017 7.83028 9.99664 7.83005 9.99156C7.83309 9.22148 8.25079 8.50457 8.92169 8.11894C9.08208 8.02671 9.13762 7.82206 9.04579 7.66144L7.48899 4.93824C7.397 4.77734 7.19196 4.72152 7.03114 4.81343C6.87024 4.90542 6.81434 5.11042 6.90634 5.27128L8.30677 7.72105C7.67934 8.18812 7.2693 8.89648 7.17809 9.67124H2.46802C2.52184 8.4341 2.87868 7.22871 3.50813 6.16632C4.11622 5.13996 4.96251 4.26902 5.96856 3.63085L6.22622 4.08164C6.31821 4.24253 6.52317 4.29835 6.68407 4.20644C6.84497 4.11445 6.90087 3.90949 6.80887 3.74859L6.38067 2.99957C6.33645 2.92222 6.26333 2.86566 6.17735 2.8423C6.09145 2.81898 5.99969 2.8307 5.92239 2.87499C4.68938 3.5821 3.65489 4.60195 2.93063 5.82425C2.18427 7.0841 1.78973 8.52808 1.78973 10.0001C1.78973 10.0047 1.78981 10.0092 1.78997 10.0139C1.79368 10.196 1.94251 10.3425 2.12548 10.3425H7.49477C7.68009 10.3425 7.83036 10.1922 7.83036 10.0069Z" fill="black"/>
<path d="M15.5129 4.85982C15.579 4.9306 15.6685 4.96638 15.7582 4.96638C15.8402 4.96638 15.9224 4.9365 15.9871 4.87614C16.1226 4.7497 16.1299 4.53736 16.0034 4.40181C15.8847 4.27462 15.7603 4.1495 15.6335 4.02993C15.4987 3.90279 15.2863 3.90896 15.1591 4.0438C15.032 4.17861 15.0382 4.39099 15.173 4.51818C15.2895 4.62802 15.4038 4.74294 15.5129 4.85982Z" fill="black"/>
<path d="M16.8806 5.5208C16.7793 5.36561 16.5713 5.32202 16.4162 5.42327C16.261 5.52459 16.2173 5.73252 16.3186 5.88768C17.0573 7.01912 17.4739 8.32088 17.5322 9.67116H12.8219C12.7303 8.89026 12.3158 8.17834 11.6811 7.71147L14.0186 3.62256C14.0497 3.64221 14.0807 3.66205 14.1114 3.68213C14.2666 3.7833 14.4745 3.73959 14.5757 3.58428C14.677 3.42901 14.6332 3.22112 14.4779 3.11991C14.3429 3.0319 14.2036 2.94678 14.0638 2.86698C13.9029 2.7751 13.698 2.831 13.6061 2.99186L10.9412 7.65346C10.8969 7.73092 10.8853 7.8228 10.9089 7.90885C10.9325 7.99491 10.9895 8.06795 11.0671 8.11194C11.7451 8.49616 12.1671 9.21612 12.1699 9.99217C12.1697 9.99733 12.1696 10.0024 12.1696 10.0067C12.1696 10.1921 12.3199 10.3423 12.5052 10.3423H17.8745C18.0576 10.3423 18.2064 10.1957 18.21 10.0135C18.2101 10.0091 18.2102 10.0034 18.2102 9.99991C18.2103 8.40209 17.7505 6.85319 16.8806 5.5208Z" fill="black"/>
<path d="M11.5368 12.005C11.4925 11.9277 11.4193 11.8713 11.3334 11.8481C11.2475 11.8248 11.1557 11.8367 11.0785 11.881C10.7496 12.07 10.3767 12.17 10.0001 12.17C9.62277 12.17 9.24926 12.0697 8.91988 11.88C8.84265 11.8355 8.75093 11.8236 8.66488 11.8468C8.57883 11.8701 8.50558 11.9265 8.46125 12.0038C7.80836 13.1424 7.0373 14.4891 6.26375 15.8404L5.79226 16.6638C5.70027 16.8245 5.75578 17.0293 5.91629 17.1215C7.15578 17.8337 8.56793 18.2102 10 18.2102C11.4323 18.2102 12.8447 17.8336 14.0844 17.121C14.245 17.0287 14.3004 16.8238 14.2083 16.6631L11.5368 12.005ZM10 17.5391C8.79711 17.5391 7.60961 17.2499 6.54488 16.7L6.84613 16.1738C7.55836 14.9298 8.2684 13.6895 8.88609 12.6121C9.23785 12.7626 9.6173 12.8411 10 12.8411C10.3819 12.8411 10.7606 12.7629 11.1118 12.613L13.4555 16.6997C12.3907 17.2498 11.203 17.5391 10 17.5391Z" fill="black"/>
<path d="M8.59059 9.99995C8.59059 10.7771 9.22286 11.4094 10 11.4094C10.7772 11.4094 11.4094 10.7771 11.4094 9.99995C11.4094 9.91866 11.4024 9.8371 11.3886 9.75753C11.3569 9.57495 11.1833 9.45253 11.0005 9.48437C10.8179 9.51608 10.6956 9.68983 10.7273 9.87241C10.7346 9.91417 10.7382 9.95706 10.7382 9.99999C10.7382 10.4071 10.4071 10.7382 10 10.7382C9.59293 10.7382 9.26176 10.4071 9.26176 9.99999C9.26176 9.59292 9.59293 9.26175 10 9.26175C10.0415 9.26175 10.083 9.26519 10.1235 9.27198C10.3065 9.30272 10.4793 9.17917 10.5099 8.9964C10.5405 8.81362 10.4172 8.64065 10.2343 8.61003C10.1573 8.5971 10.0784 8.59058 9.99997 8.59058C9.22286 8.59054 8.59059 9.2228 8.59059 9.99995Z" fill="black"/>
</g>
<defs>
<clipPath id="clip0_102_163">
<rect width="20" height="20" fill="white"/>
</clipPath>
</defs>
</svg>
