<svg width="25" height="26" viewBox="0 0 25 26" fill="none" xmlns="http://www.w3.org/2000/svg">
<g clip-path="url(#clip0_1_49)">
<path d="M0.438477 6.04137C0.438477 3.19157 2.7487 0.881348 5.59849 0.881348H19.5158C22.3656 0.881348 24.6758 3.19157 24.6758 6.04137V19.9587C24.6758 22.8085 22.3656 25.1187 19.5158 25.1187H5.59849C2.7487 25.1187 0.438477 22.8085 0.438477 19.9587V6.04137Z" fill="#62FF85" stroke="black" stroke-width="0.246" stroke-linecap="round"/>
<path d="M2.39404 7.10651C2.39404 4.70796 4.33845 2.76355 6.73701 2.76355H18.524C20.9226 2.76355 22.867 4.70796 22.867 7.10651V18.8935C22.867 21.2921 20.9226 23.2365 18.524 23.2365H6.73701C4.33845 23.2365 2.39404 21.2921 2.39404 18.8935V7.10651Z" fill="#ECECEC"/>
<path d="M3.90625 6.23118C3.90625 5.18878 5.56894 4.34375 7.61998 4.34375H17.63C19.6811 4.34375 21.3438 5.18878 21.3438 6.23118V11.3938C21.3438 12.4362 19.6811 13.2812 17.63 13.2812H7.61998C5.56894 13.2812 3.90625 12.4362 3.90625 11.3938V6.23118Z" fill="#BBCEC2" stroke="black" stroke-width="0.178494" stroke-linecap="round"/>
<path d="M3.69092 6.76532V18.5727C3.69092 19.7882 4.67641 20.7734 5.89207 20.7734H19.3088C20.4509 20.7734 21.3768 19.8477 21.3768 18.7058V9.2843C21.3768 7.89311 20.2488 6.76532 18.8573 6.76532H3.69092Z" fill="#98FF94" stroke="black" stroke-width="0.798308" stroke-linecap="round"/>
<path d="M4.52136 6.13214C3.93786 6.13214 3.46484 6.61114 3.46484 7.20202V7.79821V8.45093C3.46484 9.11476 3.99626 9.6529 4.6518 9.6529H20.6092C21.1835 9.6529 21.649 9.18152 21.649 8.60003V7.25539C21.649 6.63504 21.1523 6.13214 20.5397 6.13214H4.52136Z" fill="#F0FFE1" stroke="black" stroke-width="0.304363" stroke-linecap="round"/>
<path d="M9.81201 20.8254V13.0069C9.81201 12.1745 10.4847 11.4996 11.3144 11.4996H13.9261C14.7672 11.4996 15.4491 12.1837 15.4491 13.0276V20.8254H9.81201Z" fill="#D9FEB4" stroke="black" stroke-width="0.53389" stroke-linecap="round"/>
<path d="M8.89844 5.13671C8.89844 4.28146 9.59176 3.58813 10.447 3.58813H14.6211C15.4763 3.58813 16.1696 4.28146 16.1696 5.13671V9.31077C16.1696 10.166 15.4763 10.8593 14.6211 10.8593H10.447C9.59176 10.8593 8.89844 10.166 8.89844 9.31077V5.13671Z" fill="black"/>
<path d="M8.94336 5.15387C8.94336 4.31405 9.62417 3.63324 10.464 3.63324H14.6037C15.4436 3.63324 16.1244 4.31405 16.1244 5.15387V9.29363C16.1244 10.1334 15.4436 10.8143 14.6037 10.8143H10.464C9.62417 10.8143 8.94336 10.1334 8.94336 9.29363V5.15387Z" fill="white"/>
<path d="M8.94336 5.15212C8.94336 4.31327 9.62339 3.63324 10.4622 3.63324H14.6055C15.4443 3.63324 16.1244 4.31327 16.1244 5.15212V9.29537C16.1244 10.1342 15.4443 10.8143 14.6055 10.8143H10.4622C9.62339 10.8143 8.94336 10.1342 8.94336 9.29537V5.15212Z" fill="#D8F7C9"/>
<path d="M15.1991 7.32995C15.1991 7.73123 14.8738 8.05653 14.4726 8.05653H13.5288C13.4394 8.05653 13.367 8.129 13.367 8.21839V9.73217C13.367 9.81863 13.2969 9.88871 13.2104 9.88871H12.4335C12.0291 9.88871 11.7013 9.56091 11.7013 9.15655V8.23011C11.7013 8.13424 11.6236 8.05653 11.5277 8.05653H9.99052C9.92348 8.05653 9.86914 8.00218 9.86914 7.93515V6.89341C9.86914 6.61589 10.0941 6.3909 10.3717 6.3909H11.5629C11.6394 6.3909 11.7013 6.32893 11.7013 6.25248V4.6801C11.7013 4.61306 11.7557 4.55872 11.8227 4.55872H12.671C13.0554 4.55872 13.367 4.87029 13.367 5.25463V6.27593C13.367 6.33943 13.4184 6.3909 13.4819 6.3909H15.066C15.1395 6.3909 15.1991 6.4505 15.1991 6.52401L15.1991 7.32995Z" fill="#96FF4A" stroke="black" stroke-width="0.1066" stroke-linecap="round"/>
<path d="M12.4505 5.25222C12.3952 5.26049 12.3343 5.29588 12.2862 5.32307C12.172 5.38758 12.0499 5.4831 12.0358 5.6241C12.0316 5.66705 12.0358 5.71193 12.0454 5.75383C12.0776 5.89393 12.1885 5.99832 12.3063 6.07149C12.3456 6.09584 12.3861 6.11875 12.4274 6.13941C12.4449 6.14817 12.4769 6.15707 12.4891 6.17263C12.4973 6.18307 12.4955 6.20785 12.4963 6.22084C12.505 6.34648 12.4995 6.47539 12.4995 6.60137C12.4995 6.62887 12.4971 6.65765 12.5003 6.68498C12.5021 6.69998 12.5075 6.72535 12.4994 6.73914C12.4911 6.75336 12.467 6.76307 12.4534 6.7716C12.418 6.7938 12.3831 6.81672 12.3496 6.84173C12.2288 6.93196 12.1188 7.04048 12.0932 7.19523C12.0615 7.38715 12.1743 7.54976 12.3179 7.66456C12.3632 7.70081 12.4122 7.73285 12.462 7.76257C12.4769 7.77143 12.5103 7.7817 12.5135 7.80075C12.5224 7.85513 12.5167 7.91559 12.5168 7.97071C12.5169 8.03211 12.5226 8.09372 12.5226 8.15521C12.5226 8.18591 12.5381 8.24887 12.5225 8.27568C12.5095 8.29791 12.4636 8.31131 12.4418 8.32414C12.3611 8.37188 12.2213 8.44418 12.2288 8.55592C12.2371 8.68011 12.3327 8.75576 12.4361 8.80745C12.4678 8.82333 12.5044 8.84466 12.5398 8.84997L12.5456 9.12672C12.5044 9.13372 12.4614 9.15189 12.4217 9.16515C12.407 9.17005 12.3864 9.17544 12.3827 9.19302C12.3782 9.21375 12.4 9.22119 12.4159 9.22349C12.4547 9.22914 12.5103 9.23093 12.5485 9.22185C12.5485 9.26939 12.5502 9.31854 12.5687 9.36311C12.5772 9.38352 12.5897 9.40471 12.6148 9.40327C12.6338 9.40217 12.642 9.38462 12.6481 9.36887C12.662 9.33272 12.6649 9.29185 12.6666 9.25356C12.6671 9.24148 12.6621 9.219 12.6713 9.20954C12.6835 9.19697 12.7117 9.19115 12.7272 9.18135C12.7828 9.14618 12.8422 9.11 12.8799 9.05465C12.9635 8.93222 12.8645 8.79257 12.7561 8.73056C12.7319 8.71675 12.7029 8.6992 12.6753 8.6943C12.6753 8.63655 12.6782 8.57916 12.6782 8.52133C12.6782 8.5038 12.6715 8.46834 12.6812 8.45326C12.6899 8.43972 12.7188 8.43438 12.733 8.42827C12.7761 8.40973 12.8185 8.39002 12.8598 8.36788C12.9612 8.31356 13.053 8.2306 13.0804 8.11485C13.0891 8.07807 13.0885 8.03998 13.0875 8.00242C13.0841 7.86111 12.9918 7.74897 12.8743 7.68077C12.8399 7.66082 12.8041 7.64377 12.7676 7.62809C12.7545 7.62245 12.7292 7.61685 12.7215 7.60394C12.7147 7.59245 12.7214 7.5714 12.7215 7.55847C12.7215 7.51798 12.7243 7.47775 12.7243 7.43739C12.7243 7.32497 12.7272 7.21266 12.7272 7.1001C12.7272 7.05015 12.7157 6.98409 12.7281 6.93582C12.7326 6.91876 12.7568 6.91164 12.7705 6.90349C12.8125 6.87847 12.8556 6.85528 12.8973 6.82966C13.0222 6.75302 13.1557 6.64224 13.1596 6.48318C13.1641 6.29998 13.0587 6.14854 12.9117 6.04843C12.8722 6.02147 12.8306 5.99792 12.7878 5.97652C12.7727 5.96896 12.7424 5.96047 12.7331 5.94585C12.7254 5.9338 12.7306 5.91121 12.7322 5.89797C12.7354 5.8708 12.7346 5.84172 12.7358 5.81437C12.7376 5.77176 12.7454 5.73021 12.7473 5.68752C12.7505 5.61365 12.7445 5.5395 12.7445 5.46555C12.7734 5.46555 12.8065 5.46498 12.8339 5.47554C12.8494 5.48152 12.8607 5.49794 12.8772 5.49983C12.9246 5.50525 12.9742 5.49358 13.0213 5.4891C13.0606 5.48535 13.1 5.48734 13.1395 5.48561C13.1786 5.4839 13.2681 5.45726 13.2548 5.40212C13.29 5.40212 13.335 5.39809 13.3672 5.41459C13.3788 5.4205 13.405 5.44362 13.4182 5.43428C13.4352 5.42223 13.404 5.39852 13.396 5.39059C13.4057 5.38749 13.4529 5.37926 13.4346 5.36062C13.4251 5.3509 13.4048 5.35781 13.3932 5.35863C13.3633 5.36072 13.3338 5.36177 13.3038 5.36177C13.294 5.36177 13.2787 5.36451 13.2701 5.3588C13.2604 5.35232 13.2618 5.33177 13.2584 5.32141C13.252 5.30199 13.2386 5.28435 13.223 5.27129C13.1779 5.23336 13.1211 5.22054 13.0674 5.20014C13.017 5.181 12.9753 5.14273 12.9204 5.13489C12.8804 5.12918 12.8413 5.14339 12.8022 5.14844C12.8133 5.1107 12.7985 5.05738 12.7561 5.04626C12.692 5.02946 12.664 5.11725 12.6074 5.11966C12.5916 5.12033 12.5741 5.11008 12.56 5.10397C12.5194 5.0863 12.3917 5.00937 12.3844 5.10231C12.3837 5.11209 12.385 5.1217 12.3875 5.13114C12.3918 5.14744 12.3989 5.16231 12.4065 5.17727C12.4195 5.20277 12.4404 5.22568 12.4505 5.25222Z" fill="#010101"/>
<path d="M12.7425 5.14205C12.6937 5.1461 12.667 5.21489 12.6128 5.2166C12.57 5.21794 12.524 5.18397 12.486 5.1677C12.4727 5.16205 12.4497 5.14888 12.435 5.15624C12.4238 5.16186 12.4332 5.18381 12.4366 5.19198C12.4478 5.2187 12.4641 5.24292 12.48 5.26693C12.485 5.27456 12.4906 5.2872 12.5009 5.28847C12.5204 5.29089 12.5535 5.27473 12.5724 5.26883C12.6143 5.25578 12.657 5.2453 12.6993 5.23356C12.7162 5.22887 12.7412 5.22696 12.7557 5.21705C12.7758 5.20339 12.7745 5.13939 12.7425 5.14205Z" fill="white"/>
<path d="M12.4355 5.1532V5.15608H12.4471L12.4355 5.1532Z" fill="#A2A2A2"/>
<path d="M12.7637 5.1698V5.1871H12.7666L12.7637 5.1698Z" fill="#323232"/>
<path d="M12.604 5.21509V5.21797H12.6184L12.604 5.21509Z" fill="#A2A2A2"/>
<path d="M12.876 5.22913V5.23201H12.8875L12.876 5.22913Z" fill="#A2A2A2"/>
<path d="M12.496 6.16772V5.99475C12.496 5.97895 12.5023 5.94539 12.4914 5.93277C12.4798 5.91933 12.4513 5.9126 12.4355 5.90467C12.3787 5.87628 12.3021 5.83599 12.2974 5.76413C12.2922 5.68563 12.3446 5.60979 12.4038 5.56421C12.5123 5.48053 12.6613 5.45467 12.7958 5.46769C12.8339 5.47137 12.8618 5.494 12.8967 5.50099C12.9261 5.50686 12.9623 5.49577 12.9919 5.49339C13.0379 5.48969 13.084 5.4845 13.1302 5.4845C13.1544 5.4845 13.1798 5.48791 13.1965 5.4672C13.1393 5.46716 13.0837 5.46414 13.0265 5.46959C13.0145 5.47073 12.9766 5.4785 12.9684 5.46834C12.9565 5.45362 12.9977 5.414 13.0071 5.4046C13.0697 5.34205 13.1418 5.37206 13.2196 5.37207C13.1509 5.25317 12.9636 5.31234 12.8737 5.37119C12.8547 5.38364 12.8358 5.39819 12.8243 5.41819C12.818 5.42916 12.8149 5.44914 12.7987 5.44808C12.7831 5.44707 12.7806 5.43359 12.7846 5.42107C12.7924 5.39697 12.8086 5.37769 12.8275 5.3614C12.8861 5.31117 12.9621 5.29203 13.0351 5.27405C13.0008 5.24735 12.9496 5.21928 12.9054 5.217C12.8193 5.21254 12.719 5.2553 12.6373 5.2786C12.5998 5.28928 12.5619 5.2985 12.5249 5.31058C12.3175 5.37814 12.023 5.51434 12.087 5.78143C12.0962 5.81964 12.1096 5.85435 12.1299 5.88809C12.1571 5.93328 12.1934 5.97392 12.2337 6.0079C12.3105 6.07269 12.4032 6.12908 12.496 6.16772Z" fill="white"/>
<path d="M12.9043 5.22913V5.23201H12.9129L12.9043 5.22913Z" fill="#A2A2A2"/>
<path d="M13.0829 5.31042V5.31331H13.0916L13.0829 5.31042Z" fill="#323232"/>
<path d="M13.0894 5.31042V5.31331H13.1067L13.0894 5.31042Z" fill="#616161"/>
<path d="M13.0527 5.31329V5.31618H13.0614L13.0527 5.31329Z" fill="#616161"/>
<path d="M13.0605 5.31329V5.31618H13.0692L13.0605 5.31329Z" fill="#A2A2A2"/>
<path d="M13.064 5.37213V5.37501H13.0726L13.064 5.37213Z" fill="#616161"/>
<path d="M13.0723 5.37213V5.37501H13.0867L13.0723 5.37213Z" fill="#323232"/>
<path d="M13.0864 5.37213V5.37501H13.1037L13.0864 5.37213Z" fill="#616161"/>
<path d="M13.1021 5.37213V5.37501H13.1193L13.1021 5.37213Z" fill="#A2A2A2"/>
<path d="M13.1426 5.375V5.37788H13.1512L13.1426 5.375Z" fill="#A2A2A2"/>
<path d="M13.168 5.37769V5.38057H13.1766L13.168 5.37769Z" fill="#A2A2A2"/>
<path d="M13.1841 5.38055V5.38344H13.1928L13.1841 5.38055Z" fill="#323232"/>
<path d="M13.1958 5.38055V5.38344H13.2044L13.1958 5.38055Z" fill="#A2A2A2"/>
<path d="M13.0677 5.40863V5.41151H13.0764L13.0677 5.40863Z" fill="#323232"/>
<path d="M13.0752 5.40863V5.41151H13.0867L13.0752 5.40863Z" fill="#616161"/>
<path d="M13.0973 5.40851V5.41139H13.1089L13.0973 5.40851Z" fill="#323232"/>
<path d="M13.0308 5.43419C13.0923 5.43402 13.1512 5.42808 13.2124 5.43996L13.2153 5.42266C13.1636 5.41859 13.0689 5.38807 13.0308 5.43419Z" fill="white"/>
<path d="M13.1089 5.4115V5.41438H13.1204L13.1089 5.4115Z" fill="#A2A2A2"/>
<path d="M13.1201 5.4115V5.41438H13.1288L13.1201 5.4115Z" fill="#616161"/>
<path d="M13.1426 5.41418V5.41707H13.1541L13.1426 5.41418Z" fill="#A2A2A2"/>
<path d="M13.1538 5.41418V5.41707H13.1625L13.1538 5.41418Z" fill="#616161"/>
<path d="M13.1752 5.41705V5.41994H13.1838L13.1752 5.41705Z" fill="#A2A2A2"/>
<path d="M13.0661 5.43109V5.43397H13.092L13.0661 5.43109Z" fill="#A2A2A2"/>
<path d="M13.0801 5.43109V5.43397H13.1464L13.0801 5.43109Z" fill="#616161"/>
<path d="M13.1455 5.43109V5.43397H13.1657L13.1455 5.43109Z" fill="#A2A2A2"/>
<path d="M13.0312 5.43378V5.43666H13.0399L13.0312 5.43378Z" fill="#323232"/>
<path d="M13.1816 5.43378V5.43666H13.1903L13.1816 5.43378Z" fill="#A2A2A2"/>
<path d="M12.9644 5.46472V5.47337H12.9673L12.9644 5.46472Z" fill="#A2A2A2"/>
<path d="M13.1065 5.46759V5.47047H13.1469L13.1065 5.46759Z" fill="#323232"/>
<path d="M13.0361 5.47034V5.47322H13.0448L13.0361 5.47034Z" fill="#323232"/>
<path d="M13.0444 5.47034V5.47322H13.056L13.0444 5.47034Z" fill="#616161"/>
<path d="M13.0542 5.47034V5.47322H13.0715L13.0542 5.47034ZM13.1551 5.47034V5.47322H13.1666L13.1551 5.47034Z" fill="#A2A2A2"/>
<path d="M12.6972 5.47321V5.47609H12.7145L12.6972 5.47321Z" fill="#A2A2A2"/>
<path d="M12.7075 5.47321V5.47609H12.7219L12.7075 5.47321Z" fill="#616161"/>
<path d="M12.7212 5.47321V5.47609H12.7788L12.7212 5.47321Z" fill="#323232"/>
<path d="M12.7778 5.47321V5.47609H12.7894L12.7778 5.47321Z" fill="#616161"/>
<path d="M12.7891 5.47321V5.47609H12.8006L12.7891 5.47321Z" fill="#A2A2A2"/>
<path d="M12.9945 5.47308V5.47597H13.0032L12.9945 5.47308Z" fill="#323232"/>
<path d="M13.0024 5.47321V5.47609H13.0111L13.0024 5.47321Z" fill="#616161"/>
<path d="M13.0083 5.47321V5.47609H13.0227L13.0083 5.47321Z" fill="#A2A2A2"/>
<path d="M12.6635 5.47589V5.47877H12.6721L12.6635 5.47589Z" fill="#A2A2A2"/>
<path d="M12.6694 5.47589V5.47877H12.6781L12.6694 5.47589Z" fill="#323232"/>
<path d="M12.9848 5.47595V5.47883H12.9934L12.9848 5.47595ZM12.6158 5.47883V5.48172H12.6331L12.6158 5.47883Z" fill="#A2A2A2"/>
<path d="M12.6348 5.47876V5.48164H12.6434L12.6348 5.47876Z" fill="#616161"/>
<path d="M13.0832 5.48993V5.49281H13.1322L13.0832 5.48993Z" fill="#A2A2A2"/>
<path d="M13.1284 5.48993V5.49281H13.1572L13.1284 5.48993Z" fill="#616161"/>
<path d="M13.0303 5.4928V5.49568H13.0418L13.0303 5.4928Z" fill="#A2A2A2"/>
<path d="M13.0415 5.4928V5.49568H13.0502L13.0415 5.4928Z" fill="#616161"/>
<path d="M13.0618 5.49268V5.49556H13.0733L13.0618 5.49268Z" fill="#323232"/>
<path d="M13.0013 5.49567V5.49855H13.0099L13.0013 5.49567Z" fill="#A2A2A2"/>
<path d="M12.973 5.49835V5.50123H12.9816L12.973 5.49835Z" fill="#A2A2A2"/>
<path d="M12.881 5.50104L12.8954 5.50969V5.5068L12.881 5.50104Z" fill="#323232"/>
<path d="M12.9131 5.50397V5.50685H12.9275L12.9131 5.50397Z" fill="#A2A2A2"/>
<path d="M12.9268 5.50397V5.50685H12.9354L12.9268 5.50397Z" fill="#616161"/>
<path d="M12.6909 5.51239V5.51527H12.6996L12.6909 5.51239Z" fill="#616161"/>
<path d="M12.7122 5.51117V5.61495H12.7151C12.7151 5.58501 12.7238 5.53873 12.7122 5.51117Z" fill="#323232"/>
<path d="M12.6397 5.51526V5.51814H12.6484L12.6397 5.51526Z" fill="#323232"/>
<path d="M12.646 5.51526V5.51814H12.6575L12.646 5.51526Z" fill="#616161"/>
<path d="M12.6572 5.51526V5.51814H12.6716L12.6572 5.51526Z" fill="#A2A2A2"/>
<path d="M12.546 6.74679L12.6527 6.67797L12.6884 6.64784L12.6902 6.545V6.30284L12.7075 5.49854C12.6638 5.49854 12.6169 5.49952 12.5748 5.51214C12.563 5.51571 12.5417 5.52032 12.5346 5.53138C12.52 5.55395 12.5315 5.61673 12.534 5.64268C12.5412 5.71849 12.5339 5.79718 12.5373 5.8733C12.541 5.95769 12.5353 6.04254 12.5374 6.12699C12.5425 6.33335 12.546 6.54029 12.546 6.74679Z" fill="white"/>
<path d="M12.6185 5.51807V5.52095H12.6272L12.6185 5.51807Z" fill="#A2A2A2"/>
<path d="M12.5365 5.54565V5.58313H12.5393L12.5365 5.54565Z" fill="#323232"/>
<path d="M12.4918 5.87044L12.4889 5.54468C12.4132 5.56652 12.3141 5.67531 12.3388 5.76089C12.3533 5.81129 12.4431 5.86175 12.4918 5.87044Z" fill="#96FF4A"/>
<path d="M12.7051 5.61169V5.7443H12.708C12.708 5.70682 12.7195 5.64611 12.7051 5.61169Z" fill="#616161"/>
<path d="M12.5401 5.64624V5.71543H12.5429L12.5401 5.64624Z" fill="#A2A2A2"/>
<path d="M12.0874 5.68075V5.69517H12.0903L12.0874 5.68075Z" fill="#323232"/>
<path d="M12.0874 5.70026V5.71755H12.0903L12.0874 5.70026Z" fill="#323232"/>
<path d="M12.5337 5.71381V5.76281H12.5366L12.5337 5.71381Z" fill="#616161"/>
<path d="M12.0933 5.72839V5.73704H12.0961L12.0933 5.72839Z" fill="#A2A2A2"/>
<path d="M12.3066 5.73956V5.74821H12.3095L12.3066 5.73956Z" fill="#A2A2A2"/>
<path d="M12.7134 5.74219V5.76525H12.7163L12.7134 5.74219Z" fill="#323232"/>
<path d="M12.3066 5.7478V5.76798H12.3095L12.3066 5.7478Z" fill="#616161"/>
<path d="M12.5396 5.7616V5.80772H12.5424L12.5396 5.7616Z" fill="#323232"/>
<path d="M12.7046 5.80969V5.81834H12.7074L12.7046 5.80969Z" fill="#A2A2A2"/>
<path d="M12.6983 5.84059V5.86077H12.7012L12.6983 5.84059Z" fill="#A2A2A2"/>
<path d="M12.6938 5.86017V5.87747H12.6967L12.6938 5.86017Z" fill="#616161"/>
<path d="M12.5421 5.86505V5.93136H12.545L12.5421 5.86505Z" fill="#A2A2A2"/>
<path d="M12.7012 5.87697V5.89426H12.7041L12.7012 5.87697Z" fill="#323232"/>
<path d="M12.6909 5.91888V5.9506H12.6938L12.6909 5.91888Z" fill="#A2A2A2"/>
<path d="M12.5366 5.92993V5.98182H12.5395L12.5366 5.92993Z" fill="#616161"/>
<path d="M12.6909 5.94983V5.97577H12.6938L12.6909 5.94983Z" fill="#616161"/>
<path d="M12.6909 5.97498V6.00092H12.6938L12.6909 5.97498Z" fill="#323232"/>
<path d="M12.5411 5.98029V6.04371H12.544L12.5411 5.98029Z" fill="#323232"/>
<path d="M12.5034 6.01672V6.07726H12.5063L12.5034 6.01672Z" fill="#323232"/>
<path d="M12.7304 6.02448L12.7275 6.13979H12.7304V6.02448Z" fill="#A2A2A2"/>
<path d="M12.733 6.00543C12.733 6.06228 12.7301 6.11878 12.7301 6.17552C12.7301 6.19422 12.7239 6.22652 12.7319 6.24358C12.7417 6.26454 12.792 6.28205 12.8108 6.2963C12.8857 6.35286 12.9007 6.42336 12.8605 6.50704C12.8122 6.60747 12.7027 6.67445 12.6119 6.73205C12.4402 6.84106 12.2096 6.95414 12.147 7.16432C12.1343 7.20705 12.1329 7.24982 12.1334 7.29405C12.134 7.34703 12.1524 7.39999 12.1759 7.44684C12.2061 7.50713 12.2519 7.55675 12.3006 7.60258C12.359 7.65759 12.4406 7.72453 12.5168 7.75242C12.5168 7.7092 12.5185 7.66568 12.5144 7.62269C12.5132 7.60962 12.5183 7.58916 12.5109 7.57769C12.5044 7.56738 12.4867 7.56226 12.4764 7.55638C12.4522 7.54254 12.4282 7.52838 12.4072 7.50978C12.3175 7.43002 12.2985 7.31642 12.3451 7.20756C12.3832 7.11828 12.464 7.05345 12.5427 7.00096C12.6805 6.90913 12.8351 6.84393 12.9665 6.74243C13.0175 6.70307 13.0673 6.65543 13.0953 6.59641C13.1411 6.50005 13.122 6.36988 13.0703 6.2793C13.0394 6.22524 12.9993 6.17854 12.9521 6.13804C12.8937 6.08789 12.8089 6.02455 12.733 6.00543Z" fill="white"/>
<path d="M12.6921 6.05273V6.15075H12.6949L12.6921 6.05273Z" fill="#A2A2A2"/>
<path d="M12.5 6.07568V6.13622H12.5029L12.5 6.07568Z" fill="#616161"/>
<path d="M12.4949 6.13508V6.15815H12.4977L12.4949 6.13508Z" fill="#A2A2A2"/>
<path d="M12.535 6.13977V6.23202H12.5379L12.535 6.13977Z" fill="#A2A2A2"/>
<path d="M12.688 6.14594V6.41115H12.6909V6.22665L12.688 6.14594Z" fill="#616161"/>
<path d="M12.5396 6.23004V6.29058H12.5424L12.5396 6.23004Z" fill="#616161"/>
<path d="M12.5361 6.28894V6.34083H12.539L12.5361 6.28894Z" fill="#323232"/>
<path d="M12.729 6.30823L12.7261 6.51002L12.729 6.60516C12.7451 6.59764 12.7569 6.5831 12.7693 6.57056C12.8068 6.53262 12.8523 6.4663 12.8384 6.40913C12.8277 6.36517 12.7706 6.32141 12.729 6.30823Z" fill="#96FF4A"/>
<path d="M12.5347 6.40135V6.45612H12.5376L12.5347 6.40135Z" fill="#A2A2A2"/>
<path d="M12.688 6.40527V6.56959H12.6909V6.45716L12.688 6.40527Z" fill="#323232"/>
<path d="M12.876 6.4129V6.43597H12.8789L12.876 6.4129Z" fill="#A2A2A2"/>
<path d="M13.1035 6.43829V6.44982H13.1064L13.1035 6.43829Z" fill="#A2A2A2"/>
<path d="M12.8735 6.45239V6.46104H12.8764L12.8735 6.45239Z" fill="#A2A2A2"/>
<path d="M12.5425 6.45471V6.49795H12.5454L12.5425 6.45471Z" fill="#616161"/>
<path d="M13.1093 6.46631V6.47784H13.1122L13.1093 6.46631Z" fill="#616161"/>
<path d="M13.1093 6.47717V6.50888H13.1122L13.1093 6.47717Z" fill="#A2A2A2"/>
<path d="M12.5425 6.49689V6.53725H12.5454L12.5425 6.49689Z" fill="#323232"/>
<path d="M13.106 6.50848V6.51713H13.1088L13.106 6.50848Z" fill="#616161"/>
<path d="M13.107 6.52814V6.53679H13.1099L13.107 6.52814Z" fill="#A2A2A2"/>
<path d="M12.688 6.56647V6.63565H12.6909L12.688 6.56647Z" fill="#616161"/>
<path d="M12.5376 6.59193V6.66112H12.5405L12.5376 6.59193Z" fill="#A2A2A2"/>
<path d="M12.5449 6.65948V6.70561H12.5478L12.5449 6.65948Z" fill="#616161"/>
<path d="M12.6869 6.94006L12.586 7.00068L12.5503 7.03257L12.5514 7.12745L12.5543 7.3696L12.5687 8.24886C12.589 8.24038 12.6316 8.22338 12.6436 8.20449C12.6535 8.18893 12.6494 8.14367 12.6495 8.1249C12.6497 8.06335 12.6552 8.00186 12.6552 7.9404C12.6552 7.84161 12.6713 7.74458 12.678 7.64635C12.6877 7.50524 12.6835 7.36405 12.687 7.22258C12.6886 7.15636 12.6898 7.09008 12.6898 7.02367C12.6898 6.99906 12.6965 6.96278 12.6869 6.94006Z" fill="white"/>
<path d="M12.5082 7.51901L12.5024 7.06641C12.4766 7.07825 12.4551 7.10402 12.4356 7.12432C12.3528 7.21072 12.3183 7.35469 12.4075 7.44981C12.4344 7.47851 12.4719 7.50382 12.5082 7.51901Z" fill="#96FF4A"/>
<path d="M12.5559 7.08845V7.16052H12.5588L12.5559 7.08845Z" fill="#A2A2A2"/>
<path d="M12.5508 7.15887V7.20788H12.5537L12.5508 7.15887Z" fill="#616161"/>
<path d="M12.5533 7.20662V7.24986H12.5561L12.5533 7.20662Z" fill="#323232"/>
<path d="M12.144 7.21002V7.21867H12.1469L12.144 7.21002Z" fill="#A2A2A2"/>
<path d="M12.6901 7.21405V7.32648H12.693C12.693 7.29427 12.7025 7.24367 12.6901 7.21405Z" fill="#A2A2A2"/>
<path d="M12.1411 7.2269V7.23554H12.144L12.1411 7.2269Z" fill="#323232"/>
<path d="M12.144 7.23505V7.24658H12.1469L12.144 7.23505Z" fill="#616161"/>
<path d="M12.1411 7.24614V7.2692H12.144L12.1411 7.24614Z" fill="#A2A2A2"/>
<path d="M12.144 7.2688V7.28321H12.1469L12.144 7.2688Z" fill="#616161"/>
<path d="M12.144 7.29944V7.30809H12.1469L12.144 7.29944ZM12.3285 7.29944V7.32827H12.3314L12.3285 7.29944Z" fill="#A2A2A2"/>
<path d="M12.5532 7.30731V7.37073H12.5561L12.5532 7.30731Z" fill="#A2A2A2"/>
<path d="M12.6851 7.32446V7.37635H12.6879L12.6851 7.32446Z" fill="#616161"/>
<path d="M12.5564 7.36938V7.41551H12.5593L12.5564 7.36938Z" fill="#616161"/>
<path d="M12.6925 7.37506V7.41254H12.6953L12.6925 7.37506Z" fill="#323232"/>
<path d="M12.5561 7.41438V7.45762H12.559L12.5561 7.41438Z" fill="#323232"/>
<path d="M12.6892 7.45081V7.48252H12.6921L12.6892 7.45081Z" fill="#A2A2A2"/>
<path d="M12.6826 7.48206V7.49935H12.6855L12.6826 7.48206Z" fill="#616161"/>
<path d="M12.6887 7.49866V7.51884H12.6916L12.6887 7.49866Z" fill="#323232"/>
<path d="M12.5601 7.53381V7.65201H12.5629C12.5629 7.61829 12.5731 7.5648 12.5601 7.53381Z" fill="#A2A2A2"/>
<path d="M12.6855 7.53809V7.55827H12.6884L12.6855 7.53809Z" fill="#A2A2A2"/>
<path d="M12.5171 7.55432L12.52 7.61198H12.5229L12.5171 7.55432Z" fill="#A2A2A2"/>
<path d="M12.6797 7.55774V7.56927H12.6826L12.6797 7.55774Z" fill="#616161"/>
<path d="M12.6849 7.56909V7.58062H12.6878L12.6849 7.56909Z" fill="#323232"/>
<path d="M12.6816 7.59975V7.61704H12.6845L12.6816 7.59975Z" fill="#A2A2A2"/>
<path d="M12.6816 7.61664V7.63105H12.6845L12.6816 7.61664Z" fill="#616161"/>
<path d="M12.6768 7.63068V7.63932H12.6796L12.6768 7.63068Z" fill="#323232"/>
<path d="M12.7177 7.62396C12.7139 7.67181 12.7034 7.72018 12.7033 7.7681C12.7033 7.78163 12.6958 7.80468 12.705 7.81591C12.7169 7.83034 12.7445 7.83826 12.761 7.84668C12.8215 7.87774 12.9549 7.93505 12.9288 8.02179C12.9105 8.08262 12.8465 8.12229 12.7955 8.15385C12.6562 8.24025 12.4977 8.2975 12.366 8.39627C12.3322 8.42161 12.2941 8.45098 12.278 8.49169C12.2564 8.54643 12.2924 8.61692 12.3288 8.65601C12.3499 8.67864 12.3746 8.69703 12.4006 8.71352C12.4425 8.74007 12.4933 8.76847 12.5419 8.77997C12.5406 8.7501 12.539 8.72061 12.539 8.6906C12.539 8.68048 12.5421 8.66371 12.536 8.65497C12.5268 8.6418 12.5005 8.6343 12.4871 8.62525C12.4469 8.59812 12.4233 8.55099 12.451 8.5061C12.4956 8.43369 12.6173 8.40486 12.6918 8.37508C12.8204 8.32362 12.9824 8.25218 13.0328 8.11116C13.05 8.06301 13.0503 8.01435 13.0466 7.96413C13.0439 7.92767 13.0357 7.89062 13.0197 7.85747C12.995 7.80642 12.9589 7.76246 12.9137 7.72812C12.8549 7.68339 12.7864 7.65061 12.7177 7.62396Z" fill="white"/>
<path d="M12.7176 7.64191V7.65344H12.7205L12.7176 7.64191Z" fill="#A2A2A2"/>
<path d="M12.5562 7.64935V7.73295H12.559L12.5562 7.64935Z" fill="#616161"/>
<path d="M12.6743 7.6532V7.66185H12.6772L12.6743 7.6532Z" fill="#A2A2A2"/>
<path d="M12.6743 7.66162V7.67027H12.6772L12.6743 7.66162Z" fill="#616161"/>
<path d="M12.7138 7.66444V7.67309H12.7167L12.7138 7.66444Z" fill="#323232"/>
<path d="M12.7104 7.67279V7.68144H12.7133L12.7104 7.67279Z" fill="#616161"/>
<path d="M12.7095 7.68134V7.69287H12.7124L12.7095 7.68134Z" fill="#A2A2A2"/>
<path d="M12.6744 7.68414V7.69279H12.6773L12.6744 7.68414Z" fill="#A2A2A2"/>
<path d="M12.52 7.69208V7.73244H12.5229L12.52 7.69208Z" fill="#323232"/>
<path d="M12.5562 7.7312V7.78021H12.559L12.5562 7.7312Z" fill="#323232"/>
<path d="M12.6592 7.75436V7.76589H12.6621L12.6592 7.75436Z" fill="#323232"/>
<path d="M12.6958 7.76271V7.77424H12.6987L12.6958 7.76271Z" fill="#323232"/>
<path d="M12.6992 7.7738V7.78533H12.7021L12.6992 7.7738Z" fill="#616161"/>
<path d="M12.6958 7.78493V7.80511H12.6987L12.6958 7.78493Z" fill="#A2A2A2"/>
<path d="M12.6602 7.78772V7.81367H12.663L12.6602 7.78772Z" fill="#A2A2A2"/>
<path d="M12.6602 7.81299V7.83029H12.663L12.6602 7.81299Z" fill="#616161"/>
<path d="M12.5532 7.81567V7.85027H12.5561L12.5532 7.81567Z" fill="#A2A2A2"/>
<path d="M12.6602 7.8299V7.84143H12.663L12.6602 7.8299Z" fill="#323232"/>
<path d="M12.5591 7.84949V7.87255H12.562L12.5591 7.84949Z" fill="#616161"/>
<path d="M12.6572 7.85229V7.86671H12.6601L12.6572 7.85229Z" fill="#A2A2A2"/>
<path d="M12.6572 7.86652V7.87516H12.6601L12.6572 7.86652Z" fill="#616161"/>
<path d="M12.6942 7.86536L12.6855 8.17382C12.7408 8.14473 12.8015 8.11339 12.847 8.06992C12.8638 8.05386 12.8849 8.0342 12.887 8.0095C12.8893 7.98274 12.8667 7.96493 12.847 7.95103C12.8012 7.9188 12.7473 7.88378 12.6942 7.86536Z" fill="#96FF4A"/>
<path d="M12.5562 7.87189V7.89207H12.559L12.5562 7.87189Z" fill="#323232"/>
<path d="M12.6553 7.87488V7.88641H12.6582L12.6553 7.87488Z" fill="#323232"/>
<path d="M12.6543 7.90002V7.91732H12.6572L12.6543 7.90002Z" fill="#A2A2A2"/>
<path d="M12.6543 7.91693V7.92846H12.6572L12.6543 7.91693Z" fill="#616161"/>
<path d="M12.5557 7.91956V7.95127H12.5585L12.5557 7.91956Z" fill="#A2A2A2"/>
<path d="M12.6514 7.9281V7.93963H12.6542L12.6514 7.9281Z" fill="#323232"/>
<path d="M12.5571 7.95051V7.97358H12.56L12.5571 7.95051Z" fill="#616161"/>
<path d="M12.6519 7.95874V7.98469H12.6547L12.6519 7.95874Z" fill="#A2A2A2"/>
<path d="M13.0361 7.96185V7.9705H13.039L13.0361 7.96185Z" fill="#616161"/>
<path d="M13.038 7.97037V7.9819H13.0409L13.038 7.97037Z" fill="#A2A2A2"/>
<path d="M12.562 7.9729V7.99596H12.5649L12.562 7.9729Z" fill="#323232"/>
<path d="M12.6479 7.98401V8.00707H12.6508L12.6479 7.98401Z" fill="#616161"/>
<path d="M12.9238 7.99255V8.01273H12.9267L12.9238 7.99255Z" fill="#A2A2A2"/>
<path d="M13.0443 7.99506V8.03253H13.0472L13.0443 7.99506ZM12.6465 8.00659V8.02388H12.6494L12.6465 8.00659Z" fill="#323232"/>
<path d="M12.5601 8.0289V8.07214H12.5629L12.5601 8.0289Z" fill="#A2A2A2"/>
<path d="M13.0414 8.04303V8.05456H13.0443L13.0414 8.04303ZM12.6436 8.04591V8.07186H12.6464L12.6436 8.04591Z" fill="#A2A2A2"/>
<path d="M12.5635 8.07098V8.10269H12.5664L12.5635 8.07098ZM12.65 8.07098V8.08828H12.6528L12.65 8.07098Z" fill="#616161"/>
<path d="M12.6436 8.08809V8.10538H12.6464L12.6436 8.08809Z" fill="#323232"/>
<path d="M12.5649 8.10187V8.1307H12.5678L12.5649 8.10187Z" fill="#323232"/>
<path d="M12.6411 8.12988V8.15871H12.644L12.6411 8.12988Z" fill="#A2A2A2"/>
<path d="M12.646 8.15814V8.1812H12.6489L12.646 8.15814Z" fill="#616161"/>
<path d="M12.5615 8.16365V8.19824H12.5644L12.5615 8.16365Z" fill="#A2A2A2"/>
<path d="M12.646 8.18073V8.18937H12.6489L12.646 8.18073Z" fill="#323232"/>
<path d="M12.5674 8.19733V8.22039H12.5703L12.5674 8.19733Z" fill="#616161"/>
<path d="M12.562 8.22005V8.23446H12.5649L12.562 8.22005Z" fill="#323232"/>
<path d="M12.6422 8.43048L12.645 8.44201H12.6479L12.6422 8.43048Z" fill="#616161"/>
<path d="M12.5894 9.06767C12.6521 9.04963 12.6327 8.96216 12.6327 8.90912C12.6327 8.74768 12.6413 8.58624 12.6413 8.4248L12.578 8.45277L12.5767 8.50552L12.5803 8.6093L12.5837 8.83993L12.5894 9.06767Z" fill="white"/>
<path d="M12.6406 8.44153V8.46747H12.6435L12.6406 8.44153Z" fill="#323232"/>
<path d="M12.5744 8.45844V8.47861H12.5773L12.5744 8.45844Z" fill="#323232"/>
<path d="M12.5345 8.47955C12.4936 8.50671 12.4601 8.54286 12.5115 8.58114C12.5205 8.58786 12.53 8.59331 12.5403 8.59775C12.5403 8.5633 12.5479 8.51138 12.5345 8.47955Z" fill="#96FF4A"/>
<path d="M12.2788 8.50343V8.52073H12.2817L12.2788 8.50343Z" fill="#A2A2A2"/>
<path d="M12.5769 8.50848V8.54019H12.5798L12.5769 8.50848ZM12.6404 8.50848V8.55461H12.6433L12.6404 8.50848Z" fill="#A2A2A2"/>
<path d="M12.2812 8.52032V8.52897H12.2841L12.2812 8.52032Z" fill="#616161"/>
<path d="M12.446 8.53139V8.5458H12.4489L12.446 8.53139Z" fill="#323232"/>
<path d="M12.5801 8.53986V8.55715H12.583L12.5801 8.53986Z" fill="#616161"/>
<path d="M12.6426 8.55359V8.5853H12.6455L12.6426 8.55359Z" fill="#616161"/>
<path d="M12.5796 8.55664V8.57682H12.5825L12.5796 8.55664Z" fill="#323232"/>
<path d="M12.6423 8.58453V8.61624H12.6452L12.6423 8.58453Z" fill="#323232"/>
<path d="M12.5824 8.604V8.6386H12.5853L12.5824 8.604Z" fill="#A2A2A2"/>
<path d="M12.5786 8.63788V8.66094H12.5815L12.5786 8.63788Z" fill="#616161"/>
<path d="M12.5817 8.66034V8.6834H12.5846L12.5817 8.66034Z" fill="#323232"/>
<path d="M12.6385 8.66829V8.72594H12.6414L12.6385 8.66829Z" fill="#A2A2A2"/>
<path d="M12.5445 8.67151V8.69457H12.5474L12.5445 8.67151Z" fill="#323232"/>
<path d="M12.5425 8.69397V8.71703H12.5454L12.5425 8.69397Z" fill="#616161"/>
<path d="M12.6743 8.69409V8.70851H12.6772L12.6743 8.69409Z" fill="#A2A2A2"/>
<path d="M12.6769 8.69116C12.6732 8.71993 12.674 8.74865 12.674 8.77765C12.674 8.78768 12.6708 8.80463 12.677 8.81325C12.6846 8.82406 12.7058 8.82959 12.7172 8.83582C12.7499 8.85358 12.7815 8.87537 12.7917 8.91314C12.8031 8.95523 12.7743 8.99853 12.7432 9.02424C12.6789 9.07729 12.5855 9.11822 12.5039 9.13512V9.138C12.5572 9.138 12.6202 9.13517 12.6711 9.11814C12.7018 9.10787 12.7314 9.08539 12.7576 9.06676C12.8481 9.00242 12.908 8.91585 12.8392 8.80936C12.8236 8.78526 12.8037 8.76511 12.7807 8.74813C12.7488 8.72469 12.7137 8.70546 12.6769 8.69116Z" fill="white"/>
<path d="M12.5412 8.71625V8.75084H12.5441L12.5412 8.71625Z" fill="#A2A2A2"/>
<path d="M12.5796 8.71906V8.7623H12.5825L12.5796 8.71906Z" fill="#A2A2A2"/>
<path d="M12.6348 8.72473V8.75933H12.6376L12.6348 8.72473Z" fill="#616161"/>
<path d="M12.6714 8.74164V8.7647H12.6743L12.6714 8.74164Z" fill="#323232"/>
<path d="M12.6348 8.75854V8.78737H12.6376L12.6348 8.75854Z" fill="#323232"/>
<path d="M12.5815 8.76111V8.79282H12.5844L12.5815 8.76111Z" fill="#616161"/>
<path d="M12.6714 8.76404V8.78998H12.6743L12.6714 8.76404Z" fill="#616161"/>
<path d="M12.6694 8.78931V8.81813H12.6723L12.6694 8.78931Z" fill="#A2A2A2"/>
<path d="M12.5815 8.79218V8.821H12.5844L12.5815 8.79218Z" fill="#323232"/>
<path d="M12.6294 8.82832V8.8831H12.6323L12.6294 8.82832Z" fill="#A2A2A2"/>
<path d="M12.5806 8.8539V8.88561H12.5834L12.5806 8.8539Z" fill="#A2A2A2"/>
<path d="M12.6704 8.85773V9.02493C12.7101 9.00288 12.7843 8.94854 12.7382 8.89892C12.7303 8.89042 12.7206 8.88344 12.7108 8.87742C12.6979 8.86958 12.6846 8.86263 12.6704 8.85773Z" fill="#96FF4A"/>
<path d="M12.6318 8.88196V8.91655H12.6347L12.6318 8.88196Z" fill="#616161"/>
<path d="M12.5806 8.8849V8.90796H12.5834L12.5806 8.8849Z" fill="#616161"/>
<path d="M12.8688 8.89874V8.90739H12.8717L12.8688 8.89874ZM12.5806 8.90739V8.93045H12.5834L12.5806 8.90739Z" fill="#323232"/>
<path d="M12.8647 8.90729V8.92458H12.8676L12.8647 8.90729Z" fill="#616161"/>
<path d="M12.6299 8.91556V8.95015H12.6328L12.6299 8.91556Z" fill="#323232"/>
<path d="M12.7891 8.92419V8.93573H12.7919L12.7891 8.92419Z" fill="#616161"/>
<path d="M12.8647 8.92432V8.93296H12.8676L12.8647 8.92432Z" fill="#323232"/>
<path d="M12.5869 8.96033V8.99492H12.5898L12.5869 8.96033Z" fill="#A2A2A2"/>
<path d="M12.5869 8.99414V9.0172H12.5898L12.5869 8.99414Z" fill="#616161"/>
<path d="M12.6274 8.99963L12.6245 9.04288H12.6274V8.99963Z" fill="#A2A2A2"/>
<path d="M12.584 9.01686V9.03704H12.5869L12.584 9.01686Z" fill="#323232"/>
<path d="M12.6023 9.1236V9.12648H12.6109L12.6023 9.1236Z" fill="#A2A2A2"/>
<path d="M12.5766 9.12628V9.12916H12.5853L12.5766 9.12628Z" fill="#A2A2A2"/>
<path d="M12.5062 9.12909L12.4946 9.13197V9.13485L12.5062 9.12909Z" fill="#616161"/>
<path d="M12.5391 9.12915V9.13203H12.5535L12.5391 9.12915Z" fill="#A2A2A2"/>
<path d="M12.5592 9.12872V9.13161H12.5679L12.5592 9.12872ZM12.5073 9.13161V9.13449H12.5217L12.5073 9.13161Z" fill="#323232"/>
<path d="M12.6206 9.15985V9.16273L12.6264 9.17715H12.6293V9.15985H12.6206Z" fill="#A2A2A2"/>
<path d="M12.6011 9.16278V9.16566H12.6097L12.6011 9.16278Z" fill="#A2A2A2"/>
<path d="M12.5923 9.16395C12.5923 9.20829 12.5942 9.25546 12.6125 9.29656H12.6153L12.6269 9.16107L12.5923 9.16395Z" fill="white"/>
<path d="M12.6265 9.17645V9.21393H12.6293L12.6265 9.17645Z" fill="#616161"/>
<path d="M12.5928 9.20184V9.22779H12.5957L12.5928 9.20184Z" fill="#A2A2A2"/>
<path d="M12.6265 9.21313V9.23331H12.6293L12.6265 9.21313Z" fill="#323232"/>
<path d="M5.09619 13.7446C5.09619 13.4805 5.31031 13.2664 5.57444 13.2664H8.06896C8.32899 13.2664 8.53979 13.4772 8.53979 13.7372V16.2253C8.53979 16.493 8.32279 16.71 8.05511 16.71H5.58829C5.31651 16.71 5.09619 16.4896 5.09619 16.2179L5.09619 13.7446Z" fill="#D3EABB" stroke="black" stroke-width="0.502" stroke-linecap="round"/>
<path d="M16.6719 13.7446C16.6719 13.4805 16.886 13.2664 17.1501 13.2664H19.6446C19.9047 13.2664 20.1155 13.4772 20.1155 13.7372V16.2253C20.1155 16.493 19.8985 16.71 19.6308 16.71H17.164C16.8922 16.71 16.6719 16.4896 16.6719 16.2179L16.6719 13.7446Z" fill="#D3EABB" stroke="black" stroke-width="0.502" stroke-linecap="round"/>
</g>
<defs>
<clipPath id="clip0_1_49">
<rect width="25" height="25" fill="white" transform="translate(0 0.5)"/>
</clipPath>
</defs>
</svg>
