<svg width="20" height="20" viewBox="0 0 20 20" fill="none" xmlns="http://www.w3.org/2000/svg">
<g clip-path="url(#clip0_1_2)">
<mask id="mask0_1_2" style="mask-type:luminance" maskUnits="userSpaceOnUse" x="0" y="0" width="20" height="20">
<path d="M20 0H0V20H20V0Z" fill="white"/>
</mask>
<g mask="url(#mask0_1_2)">
<path d="M15.57 0.546875H4.50816C3.46828 0.548043 2.47133 0.961652 1.73602 1.69696C1.00071 2.43227 0.587106 3.42922 0.585938 4.4691V15.5309C0.587116 16.5708 1.00073 17.5678 1.73604 18.3031C2.47134 19.0384 3.46829 19.452 4.50816 19.4531H15.57C16.6099 19.4519 17.6068 19.0383 18.3421 18.303C19.0774 17.5677 19.491 16.5708 19.4922 15.5309V4.4691C19.491 3.42923 19.0774 2.43228 18.3421 1.69697C17.6068 0.961667 16.6099 0.548054 15.57 0.546875ZM19.0234 15.5309C19.0224 16.4465 18.6582 17.3243 18.0108 17.9717C17.3634 18.6192 16.4856 18.9833 15.57 18.9844H4.50816C3.59257 18.9833 2.71477 18.6192 2.06734 17.9717C1.41992 17.3243 1.05573 16.4465 1.05469 15.5309V4.4691C1.05572 3.5535 1.4199 2.6757 2.06733 2.02827C2.71476 1.38084 3.59256 1.01666 4.50816 1.01563H15.57C16.4856 1.01667 17.3634 1.38085 18.0108 2.02828C18.6582 2.67571 19.0224 3.55351 19.0234 4.4691V15.5309Z" fill="black"/>
<path d="M19.0234 15.5309C19.0224 16.4465 18.6582 17.3243 18.0108 17.9717C17.3634 18.6192 16.4856 18.9833 15.57 18.9844H4.50816C3.59257 18.9833 2.71477 18.6192 2.06734 17.9717C1.41992 17.3243 1.05573 16.4465 1.05469 15.5309V4.46909C1.05572 3.55349 1.4199 2.67569 2.06733 2.02826C2.71476 1.38083 3.59256 1.01666 4.50816 1.01562H15.57C16.4856 1.01667 17.3634 1.38085 18.0108 2.02828C18.6582 2.6757 19.0224 3.5535 19.0234 4.46909V15.5309Z" fill="white"/>
<path d="M15.7805 6.77197H12.9297V6.02471C12.9294 5.72571 12.8105 5.43905 12.599 5.22762C12.3876 5.0162 12.101 4.89728 11.802 4.89697H8.19805C7.89905 4.89728 7.61239 5.0162 7.40096 5.22762C7.18954 5.43905 7.07062 5.72571 7.07031 6.02471V6.77197H4.21953C3.96041 6.77226 3.71199 6.87533 3.52876 7.05855C3.34554 7.24177 3.24248 7.4902 3.24219 7.74932V14.0758C3.24248 14.335 3.34554 14.5834 3.52876 14.7666C3.71199 14.9499 3.96041 15.0529 4.21953 15.0532H15.7805C16.0396 15.0529 16.288 14.9499 16.4712 14.7666C16.6545 14.5834 16.7575 14.335 16.7578 14.0758V7.74932C16.7575 7.4902 16.6545 7.24177 16.4712 7.05855C16.288 6.87533 16.0396 6.77226 15.7805 6.77197ZM6.64063 7.24072H13.3594V14.5845H6.64063V7.24072ZM6.17188 14.5845H5.15625V7.24072H6.17188V14.5845ZM13.8281 7.24072H14.8438V14.5845H13.8281V7.24072ZM7.53906 6.02471C7.53926 5.84999 7.60875 5.68249 7.73229 5.55895C7.85583 5.43541 8.02333 5.36592 8.19805 5.36572H11.802C11.9767 5.36592 12.1442 5.43541 12.2677 5.55895C12.3912 5.68249 12.4607 5.84999 12.4609 6.02471V6.77197H7.53906V6.02471ZM3.71094 14.0758V7.74932C3.71109 7.61448 3.76473 7.4852 3.86007 7.38986C3.95542 7.29451 4.08469 7.24088 4.21953 7.24072H4.6875V14.5845H4.21953C4.08468 14.5843 3.95541 14.5307 3.86006 14.4353C3.76471 14.34 3.71108 14.2107 3.71094 14.0758ZM16.2891 14.0758C16.2889 14.2107 16.2353 14.34 16.1399 14.4353C16.0446 14.5307 15.9153 14.5843 15.7805 14.5845H15.3125V7.24072H15.7805C15.9153 7.24088 16.0446 7.29451 16.1399 7.38986C16.2353 7.4852 16.2889 7.61448 16.2891 7.74932V14.0758Z" fill="black"/>
<path d="M3.71094 14.0758V7.74932C3.71109 7.61448 3.76473 7.4852 3.86007 7.38986C3.95542 7.29451 4.08469 7.24088 4.21953 7.24072H4.6875V14.5845H4.21953C4.08468 14.5843 3.95541 14.5307 3.86006 14.4353C3.76471 14.34 3.71108 14.2107 3.71094 14.0758Z" fill="#FB636C"/>
<path d="M16.2891 14.0758C16.2889 14.2107 16.2353 14.34 16.1399 14.4353C16.0446 14.5307 15.9153 14.5843 15.7805 14.5845H15.3125V7.24072H15.7805C15.9153 7.24088 16.0446 7.29451 16.1399 7.38986C16.2353 7.4852 16.2889 7.61448 16.2891 7.74932V14.0758Z" fill="#FB636C"/>
<path d="M6.64063 7.24072H13.3594V14.5845H6.64063V7.24072Z" fill="#FB636C"/>
<path d="M12.2231 11.5531C12.223 11.6361 12.19 11.7157 12.1313 11.7744C12.0726 11.8331 11.993 11.8661 11.91 11.8662H11.2297C11.1664 11.8662 11.1058 11.8914 11.0611 11.9361C11.0164 11.9808 10.9912 12.0414 10.9912 12.1047V12.785C10.9911 12.868 10.9581 12.9476 10.8994 13.0063C10.8407 13.065 10.7611 13.098 10.6781 13.0981H9.39691C9.31389 13.098 9.2343 13.065 9.17559 13.0063C9.11689 12.9476 9.08386 12.868 9.08377 12.785V12.1047C9.08377 12.0414 9.05865 11.9808 9.01393 11.9361C8.96922 11.8914 8.90857 11.8662 8.84534 11.8662H8.16501C8.08199 11.8661 8.00239 11.8331 7.94369 11.7744C7.88498 11.7157 7.85196 11.6361 7.85187 11.5531V10.2719C7.85196 10.1889 7.88498 10.1093 7.94369 10.0506C8.00239 9.99189 8.08199 9.95886 8.16501 9.95877H8.84534C8.90857 9.95877 8.96922 9.93365 9.01393 9.88893C9.05865 9.84422 9.08377 9.78357 9.08377 9.72034V9.04001C9.08386 8.95699 9.11689 8.87739 9.17559 8.81869C9.2343 8.75998 9.31389 8.72696 9.39691 8.72687H10.6781C10.7611 8.72696 10.8407 8.75998 10.8994 8.81869C10.9581 8.87739 10.9911 8.95699 10.9912 9.04001V9.72034C10.9912 9.78357 11.0164 9.84422 11.0611 9.88893C11.1058 9.93365 11.1664 9.95877 11.2297 9.95877H11.91C11.993 9.95886 12.0726 9.99189 12.1313 10.0506C12.19 10.1093 12.223 10.1889 12.2231 10.2719V11.5531Z" fill="white"/>
</g>
</g>
<defs>
<clipPath id="clip0_1_2">
<rect width="20" height="20" fill="white"/>
</clipPath>
</defs>
</svg>
