<svg width="25" height="26" viewBox="0 0 25 26" fill="none" xmlns="http://www.w3.org/2000/svg">
<g clip-path="url(#clip0_1_40)">
<path d="M0.381348 6.04137C0.381348 3.19157 2.69157 0.881348 5.54137 0.881348H19.4587C22.3085 0.881348 24.6187 3.19157 24.6187 6.04137V19.9587C24.6187 22.8085 22.3085 25.1187 19.4587 25.1187H5.54137C2.69157 25.1187 0.381348 22.8085 0.381348 19.9587V6.04137Z" fill="#FF0000"/>
<path d="M0.772949 6.2482C0.772949 3.50034 3.00053 1.27277 5.74838 1.27277H19.2519C21.9998 1.27277 24.2274 3.50034 24.2274 6.2482V19.7518C24.2274 22.4996 21.9998 24.7272 19.2519 24.7272H5.74838C3.00053 24.7272 0.772949 22.4996 0.772949 19.7518V6.2482Z" fill="white"/>
<path d="M18.3499 13.3994H14.328V17.4213H10.6718V13.3994H6.6499V9.74313H10.6718V5.72125H14.328V9.74313H18.3499V13.3994Z" stroke="white" stroke-width="0.468" stroke-linecap="round"/>
<path d="M21.0502 15.0576C21.0502 15.3969 20.7752 15.6719 20.4359 15.6719H15.6907C15.4043 15.6719 15.1721 15.9041 15.1721 16.1905V21.0484C15.1721 21.3254 14.9475 21.55 14.6704 21.55H10.3299C10.0529 21.55 9.82832 21.3254 9.82832 21.0484V16.2281C9.82832 15.9209 9.57929 15.6719 9.2721 15.6719H4.33914C4.12433 15.6719 3.9502 15.4977 3.9502 15.2829V10.8298C3.9502 10.5527 4.17478 10.3281 4.45182 10.3281H9.38478C9.62974 10.3281 9.82832 10.1296 9.82832 9.88459V4.83896C9.82832 4.62415 10.0025 4.45001 10.2173 4.45001H14.6704C14.9475 4.45001 15.1721 4.67459 15.1721 4.95163V9.95971C15.1721 10.1632 15.337 10.3281 15.5405 10.3281H20.6237C20.8592 10.3281 21.0502 10.5191 21.0502 10.7546L21.0502 15.0576Z" fill="#FF0000" stroke="#FFB3B3" stroke-width="1.026" stroke-linecap="round"/>
</g>
<defs>
<clipPath id="clip0_1_40">
<rect width="25" height="25" fill="white" transform="translate(0 0.5)"/>
</clipPath>
</defs>
</svg>
