<svg width="25" height="26" viewBox="0 0 25 26" fill="none" xmlns="http://www.w3.org/2000/svg">
<g clip-path="url(#clip0_1_24)">
<path d="M1.30859 24.1236V13.454C1.30859 7.05983 6.49208 1.87634 12.8862 1.87634H23.6913V12.7716C23.6913 19.0412 18.6088 24.1236 12.3393 24.1236H1.30859Z" fill="#F52121" fill-opacity="0.9" stroke="#FF5656" stroke-width="6" stroke-linecap="round"/>
<path d="M21.0502 15.0576C21.0502 15.3969 20.7752 15.6719 20.4359 15.6719H15.6907C15.4043 15.6719 15.1721 15.9041 15.1721 16.1905V21.0484C15.1721 21.3254 14.9475 21.55 14.6704 21.55H10.3299C10.0529 21.55 9.82832 21.3254 9.82832 21.0484V16.2281C9.82832 15.9209 9.57929 15.6719 9.2721 15.6719H4.33914C4.12433 15.6719 3.9502 15.4977 3.9502 15.2829V10.8298C3.9502 10.5527 4.17478 10.3281 4.45182 10.3281H9.38478C9.62974 10.3281 9.82832 10.1296 9.82832 9.88459V4.83896C9.82832 4.62415 10.0025 4.45001 10.2173 4.45001H14.6704C14.9475 4.45001 15.1721 4.67459 15.1721 4.95163V9.95971C15.1721 10.1632 15.337 10.3281 15.5405 10.3281H20.6237C20.8592 10.3281 21.0502 10.5191 21.0502 10.7546L21.0502 15.0576Z" fill="white"/>
</g>
<defs>
<clipPath id="clip0_1_24">
<rect width="25" height="25" fill="white" transform="translate(0 0.5)"/>
</clipPath>
</defs>
</svg>
