<svg width="25" height="25" viewBox="0 0 25 25" fill="none" xmlns="http://www.w3.org/2000/svg">
<g clip-path="url(#clip0_4_70)">
<path d="M19.4625 0.683594H5.6352C4.33535 0.685054 3.08916 1.20206 2.17003 2.1212C1.25089 3.04033 0.733882 4.28653 0.732422 5.58638V19.4137C0.733895 20.7135 1.25091 21.9597 2.17004 22.8788C3.08918 23.7979 4.33536 24.3149 5.6352 24.3164H19.4625C20.7623 24.3149 22.0085 23.7979 22.9276 22.8788C23.8468 21.9597 24.3638 20.7135 24.3652 19.4137V5.58638C24.3638 4.28653 23.8468 3.04035 22.9276 2.12122C22.0085 1.20208 20.7623 0.685067 19.4625 0.683594ZM23.7793 19.4137C23.778 20.5582 23.3228 21.6554 22.5135 22.4647C21.7042 23.2739 20.607 23.7292 19.4625 23.7305H5.6352C4.49071 23.7292 3.39346 23.274 2.58418 22.4647C1.77489 21.6554 1.31966 20.5582 1.31836 19.4137V5.58638C1.31965 4.44187 1.77488 3.34462 2.58416 2.53533C3.39345 1.72605 4.4907 1.27082 5.6352 1.26953H19.4625C20.607 1.27084 21.7042 1.72607 22.5135 2.53535C23.3228 3.34463 23.778 4.44188 23.7793 5.58638V19.4137Z" fill="black"/>
<path d="M19.4625 0.683594H5.6352C4.33535 0.685054 3.08916 1.20206 2.17003 2.1212C1.25089 3.04033 0.733882 4.28653 0.732422 5.58638V19.4137C0.733895 20.7135 1.25091 21.9597 2.17004 22.8788C3.08918 23.7979 4.33536 24.3149 5.6352 24.3164H19.4625C20.7623 24.3149 22.0085 23.7979 22.9276 22.8788C23.8468 21.9597 24.3638 20.7135 24.3652 19.4137V5.58638C24.3638 4.28653 23.8468 3.04035 22.9276 2.12122C22.0085 1.20208 20.7623 0.685067 19.4625 0.683594ZM23.7793 19.4137C23.778 20.5582 23.3228 21.6554 22.5135 22.4647C21.7042 23.2739 20.607 23.7292 19.4625 23.7305H5.6352C4.49071 23.7292 3.39346 23.274 2.58418 22.4647C1.77489 21.6554 1.31966 20.5582 1.31836 19.4137V5.58638C1.31965 4.44187 1.77488 3.34462 2.58416 2.53533C3.39345 1.72605 4.4907 1.27082 5.6352 1.26953H19.4625C20.607 1.27084 21.7042 1.72607 22.5135 2.53535C23.3228 3.34463 23.778 4.44188 23.7793 5.58638V19.4137Z" fill="black"/>
<path d="M23.7793 19.4137C23.778 20.5582 23.3228 21.6554 22.5135 22.4647C21.7042 23.2739 20.607 23.7292 19.4625 23.7305H5.6352C4.49071 23.7292 3.39346 23.274 2.58418 22.4647C1.77489 21.6554 1.31966 20.5582 1.31836 19.4137V5.58638C1.31965 4.44187 1.77488 3.34462 2.58416 2.53533C3.39345 1.72605 4.4907 1.27082 5.6352 1.26953H19.4625C20.607 1.27084 21.7042 1.72607 22.5135 2.53535C23.3228 3.34463 23.778 4.44188 23.7793 5.58638V19.4137Z" fill="#FFAD61"/>
<path d="M20.711 10.4375H18.5625V9.14844C18.5625 8.43773 17.9842 7.85938 17.2735 7.85938H15.8714C15.4881 6.37909 14.1449 5.28125 12.5469 5.28125C10.9489 5.28125 9.6057 6.37909 9.22241 7.85938H7.82035C7.10963 7.85938 6.53128 8.43773 6.53128 9.14844V10.4375H4.38281C3.6721 10.4375 3.09375 11.0159 3.09375 11.7266V21.1797V23.3282C3.09375 23.5653 4.13737 24.0625 4.375 24.0625L20.2969 24.1876C20.5345 24.1876 22.0001 23.6747 22.0001 23.4375V21.1797V11.7266C22 11.0159 21.4217 10.4375 20.711 10.4375ZM6.53124 23.3282H3.95311V21.6094H6.53124V23.3282ZM6.53124 20.75H3.95311V11.7266C3.95311 11.4898 4.14563 11.2969 4.38281 11.2969H6.53124V20.75ZM12.5469 6.14061C13.9687 6.14061 15.125 7.2969 15.125 8.71874C15.125 10.1406 13.9687 11.2969 12.5469 11.2969C11.1251 11.2969 9.96877 10.1406 9.96877 8.71874C9.96877 7.2969 11.1251 6.14061 12.5469 6.14061ZM12.1172 23.3282H9.53907V18.6016H12.1172V23.3282ZM15.5547 23.3282H12.9766V18.6016H15.5547V23.3282ZM17.7032 10.8672V21.1797V23.3282H16.4141V18.1719C16.4141 17.9347 16.222 17.7422 15.9844 17.7422H9.10937C8.87174 17.7422 8.67967 17.9347 8.67967 18.1719V23.3282H7.3906V21.1797V10.8672V9.14844C7.3906 8.9117 7.58312 8.71874 7.82031 8.71874H9.10937C9.10937 10.6141 10.6515 12.1562 12.5469 12.1562C14.4422 12.1562 15.9844 10.6141 15.9844 8.71874H17.2735C17.5106 8.71874 17.7032 8.91166 17.7032 9.14844V10.8672ZM21.1407 23.3282H18.5625V21.6094H21.1407V23.3282ZM21.1407 20.75H18.5625V11.2969H20.711C20.9481 11.2969 21.1407 11.4898 21.1407 11.7266V20.75Z" fill="black"/>
<path d="M17.7032 10.8672V21.1797V23.3282H16.4141V18.1719C16.4141 17.9347 16.222 17.7422 15.9844 17.7422H9.10937C8.87174 17.7422 8.67967 17.9347 8.67967 18.1719V23.3282H7.3906V21.1797V10.8672V9.14844C7.3906 8.9117 7.58312 8.71874 7.82031 8.71874H9.10937C9.10937 10.6141 10.6515 12.1562 12.5469 12.1562C14.4422 12.1562 15.9844 10.6141 15.9844 8.71874H17.2735C17.5106 8.71874 17.7032 8.91166 17.7032 9.14844V10.8672Z" fill="white"/>
<path d="M6.53124 23.3282H3.95311V21.6094H6.53124V23.3282Z" fill="white"/>
<path d="M6.53124 20.75H3.95311V11.7266C3.95311 11.4898 4.14563 11.2969 4.38281 11.2969H6.53124V20.75Z" fill="white"/>
<path d="M21.1407 20.75H18.5625V11.2969H20.711C20.9481 11.2969 21.1407 11.4898 21.1407 11.7266V20.75Z" fill="white"/>
<path d="M21.1407 23.3282H18.5625V21.6094H21.1407V23.3282Z" fill="white"/>
<path d="M12.5469 6.14061C13.9687 6.14061 15.125 7.2969 15.125 8.71874C15.125 10.1406 13.9687 11.2969 12.5469 11.2969C11.1251 11.2969 9.96877 10.1406 9.96877 8.71874C9.96877 7.2969 11.1251 6.14061 12.5469 6.14061Z" fill="white"/>
<path d="M19.8516 12.8282C20.0889 12.8282 20.2813 12.6358 20.2813 12.3985C20.2813 12.1611 20.0889 11.9688 19.8516 11.9688C19.6143 11.9688 19.4219 12.1611 19.4219 12.3985C19.4219 12.6358 19.6143 12.8282 19.8516 12.8282Z" fill="black"/>
<path d="M16.4141 12.8281H13.836H11.2578H8.6797C8.44207 12.8281 8.25 13.0206 8.25 13.2578V16.2657C8.25 16.5028 8.44207 16.6954 8.6797 16.6954H11.2578H13.836H16.4141C16.6517 16.6954 16.8438 16.5028 16.8438 16.2657V13.2578C16.8437 13.0206 16.6517 12.8281 16.4141 12.8281ZM10.8281 15.836H9.10936V13.6875H10.8281V15.836ZM13.4063 15.836H11.6875V13.6875H13.4063V15.836ZM15.9844 15.836H14.2656V13.6875H15.9844V15.836Z" fill="black"/>
<path d="M10.8281 15.836H9.10936V13.6875H10.8281V15.836Z" fill="#FFAD61"/>
<path d="M13.4063 15.836H11.6875V13.6875H13.4063V15.836Z" fill="#FFAD61"/>
<path d="M15.9844 15.836H14.2656V13.6875H15.9844V15.836Z" fill="#FFAD61"/>
<path d="M5.24219 12.8282C5.4795 12.8282 5.67189 12.6358 5.67189 12.3985C5.67189 12.1611 5.4795 11.9688 5.24219 11.9688C5.00487 11.9688 4.81248 12.1611 4.81248 12.3985C4.81248 12.6358 5.00487 12.8282 5.24219 12.8282Z" fill="black"/>
<path d="M5.24219 14.5469C5.4795 14.5469 5.67189 14.3545 5.67189 14.1172C5.67189 13.8799 5.4795 13.6875 5.24219 13.6875C5.00487 13.6875 4.81248 13.8799 4.81248 14.1172C4.81248 14.3545 5.00487 14.5469 5.24219 14.5469Z" fill="black"/>
<path d="M5.24219 16.2657C5.4795 16.2657 5.67189 16.0733 5.67189 15.836C5.67189 15.5986 5.4795 15.4062 5.24219 15.4062C5.00487 15.4062 4.81248 15.5986 4.81248 15.836C4.81248 16.0733 5.00487 16.2657 5.24219 16.2657Z" fill="black"/>
<path d="M5.24219 17.9844C5.4795 17.9844 5.67189 17.792 5.67189 17.5547C5.67189 17.3174 5.4795 17.125 5.24219 17.125C5.00487 17.125 4.81248 17.3174 4.81248 17.5547C4.81248 17.792 5.00487 17.9844 5.24219 17.9844Z" fill="black"/>
<path d="M5.24219 19.7032C5.4795 19.7032 5.67189 19.5108 5.67189 19.2735C5.67189 19.0361 5.4795 18.8438 5.24219 18.8438C5.00487 18.8438 4.81248 19.0361 4.81248 19.2735C4.81248 19.5108 5.00487 19.7032 5.24219 19.7032Z" fill="black"/>
<path d="M19.8516 14.5469C20.0889 14.5469 20.2813 14.3545 20.2813 14.1172C20.2813 13.8799 20.0889 13.6875 19.8516 13.6875C19.6143 13.6875 19.4219 13.8799 19.4219 14.1172C19.4219 14.3545 19.6143 14.5469 19.8516 14.5469Z" fill="black"/>
<path d="M19.8516 16.2657C20.0889 16.2657 20.2813 16.0733 20.2813 15.836C20.2813 15.5986 20.0889 15.4062 19.8516 15.4062C19.6143 15.4062 19.4219 15.5986 19.4219 15.836C19.4219 16.0733 19.6143 16.2657 19.8516 16.2657Z" fill="black"/>
<path d="M19.8516 17.9844C20.0889 17.9844 20.2813 17.792 20.2813 17.5547C20.2813 17.3174 20.0889 17.125 19.8516 17.125C19.6143 17.125 19.4219 17.3174 19.4219 17.5547C19.4219 17.792 19.6143 17.9844 19.8516 17.9844Z" fill="black"/>
<path d="M19.8516 19.7032C20.0889 19.7032 20.2813 19.5108 20.2813 19.2735C20.2813 19.0361 20.0889 18.8438 19.8516 18.8438C19.6143 18.8438 19.4219 19.0361 19.4219 19.2735C19.4219 19.5108 19.6143 19.7032 19.8516 19.7032Z" fill="black"/>
<path d="M13.4063 7.24219C13.1686 7.24219 12.9766 7.4347 12.9766 7.67189V8.10159H12.1172V7.67189C12.1172 7.4347 11.9251 7.24219 11.6875 7.24219C11.4499 7.24219 11.2578 7.4347 11.2578 7.67189V9.39065C11.2578 9.62784 11.4499 9.82036 11.6875 9.82036C11.9251 9.82036 12.1172 9.62784 12.1172 9.39065V8.96095H12.9766V9.39065C12.9766 9.62784 13.1686 9.82036 13.4063 9.82036C13.6439 9.82036 13.836 9.62784 13.836 9.39065V7.67189C13.836 7.4347 13.6439 7.24219 13.4063 7.24219Z" fill="black"/>
<path d="M19.4625 0.683594H5.6352C4.33535 0.685054 3.08916 1.20206 2.17003 2.1212C1.25089 3.04033 0.733882 4.28653 0.732422 5.58638V19.4137C0.733895 20.7135 1.25091 21.9597 2.17004 22.8788C3.08918 23.7979 4.33536 24.3149 5.6352 24.3164H19.4625C20.7623 24.3149 22.0085 23.7979 22.9276 22.8788C23.8468 21.9597 24.3638 20.7135 24.3652 19.4137V5.58638C24.3638 4.28653 23.8468 3.04035 22.9276 2.12122C22.0085 1.20208 20.7623 0.685067 19.4625 0.683594ZM23.7793 19.4137C23.778 20.5582 23.3228 21.6554 22.5135 22.4647C21.7042 23.2739 20.607 23.7292 19.4625 23.7305H5.6352C4.49071 23.7292 3.39346 23.274 2.58418 22.4647C1.77489 21.6554 1.31966 20.5582 1.31836 19.4137V5.58638C1.31965 4.44187 1.77488 3.34462 2.58416 2.53533C3.39345 1.72605 4.4907 1.27082 5.6352 1.26953H19.4625C20.607 1.27084 21.7042 1.72607 22.5135 2.53535C23.3228 3.34463 23.778 4.44188 23.7793 5.58638V19.4137Z" fill="black"/>
</g>
<defs>
<clipPath id="clip0_4_70">
<rect width="25" height="25" fill="white"/>
</clipPath>
</defs>
</svg>
