<svg width="20" height="20" viewBox="0 0 20 20" fill="none" xmlns="http://www.w3.org/2000/svg">
<path d="M1.49272 1.49268V18.5072H18.5073V1.49268H1.49272Z" fill="white"/>
<path d="M9.37295 9.43273C9.37295 9.9257 8.97403 10.3234 8.48229 10.3234C7.99096 10.3234 7.59246 9.9257 7.59246 9.43273C7.59246 8.94222 7.99096 8.54289 8.48229 8.54289C8.97403 8.54289 9.37295 8.94222 9.37295 9.43273ZM17.0399 18.2498H13.5404V16.8414H14.6043L14.1121 15.8546L14.0985 15.8369C13.9455 15.6298 13.7813 15.5131 13.5404 15.4553V7.53012H6.36847V12.245L7.03306 12.2598L8.01324 10.9562C8.23766 10.6571 8.49261 10.4698 9.0025 10.4665L10.9983 10.4632C11.5656 10.4632 11.7921 10.4368 12.068 10.8667L12.8279 12.2388C12.8605 12.299 12.882 12.3667 12.882 12.4397C12.882 12.6682 12.6963 12.8539 12.4678 12.8539C12.3061 12.8539 12.167 12.7594 12.099 12.6241L11.3742 11.3213H10.3498L11.0264 12.8526C11.1386 13.1121 11.269 13.3167 11.3218 13.8048L11.4402 15.6661H13.0701C13.5614 15.6661 13.724 15.7606 13.8927 15.9891L14.1901 16.5852H10.8766C10.526 16.5852 10.3639 16.4503 10.3465 16.0729L10.2298 13.9875L8.43939 17.7168C8.20837 18.1983 8.07471 18.2498 7.62216 18.2498H6.96499L9.15926 13.6893L8.39566 11.9525L7.71498 12.8563C7.52645 13.0923 7.48107 13.12 7.07844 13.1043L6.36847 13.0804V18.2498H2.96011V7.31807L9.99918 2.81485L17.0399 7.31807V18.2498ZM1.49272 1.49268V18.5072H18.5073V1.49268H1.49272Z" fill="#00B06B"/>
</svg>
