<svg width="25" height="25" viewBox="0 0 25 25" fill="none" xmlns="http://www.w3.org/2000/svg">
<g clip-path="url(#clip0_2_24)">
<path d="M19.4625 0.683594H5.6352C4.33535 0.685054 3.08916 1.20206 2.17003 2.1212C1.25089 3.04033 0.733882 4.28653 0.732422 5.58638V19.4137C0.733895 20.7135 1.25091 21.9597 2.17004 22.8788C3.08918 23.7979 4.33536 24.3149 5.6352 24.3164H19.4625C20.7623 24.3149 22.0085 23.7979 22.9276 22.8788C23.8468 21.9597 24.3638 20.7135 24.3652 19.4137V5.58638C24.3638 4.28653 23.8468 3.04035 22.9276 2.12122C22.0085 1.20208 20.7623 0.685067 19.4625 0.683594ZM23.7793 19.4137C23.778 20.5582 23.3228 21.6554 22.5135 22.4647C21.7042 23.2739 20.607 23.7292 19.4625 23.7305H5.6352C4.49071 23.7292 3.39346 23.274 2.58418 22.4647C1.77489 21.6554 1.31966 20.5582 1.31836 19.4137V5.58638C1.31965 4.44187 1.77488 3.34462 2.58416 2.53533C3.39345 1.72605 4.4907 1.27082 5.6352 1.26953H19.4625C20.607 1.27084 21.7042 1.72607 22.5135 2.53535C23.3228 3.34463 23.778 4.44188 23.7793 5.58638V19.4137Z" fill="black"/>
<path d="M23.7793 19.4137C23.778 20.5582 23.3228 21.6554 22.5135 22.4647C21.7042 23.2739 20.607 23.7292 19.4625 23.7305H5.6352C4.49071 23.7292 3.39346 23.274 2.58418 22.4647C1.77489 21.6554 1.31966 20.5582 1.31836 19.4137V5.58638C1.31965 4.44187 1.77488 3.34462 2.58416 2.53533C3.39345 1.72605 4.4907 1.27082 5.6352 1.26953H19.4625C20.607 1.27084 21.7042 1.72607 22.5135 2.53535C23.3228 3.34463 23.778 4.44188 23.7793 5.58638V19.4137Z" fill="white"/>
<path d="M12.2929 13.8455C12.3479 13.9004 12.4224 13.9313 12.5001 13.9313C12.5778 13.9313 12.6523 13.9004 12.7072 13.8455L17.0403 9.5124C17.3395 9.21592 17.5772 8.86324 17.7398 8.47462C17.9023 8.08601 17.9865 7.66911 17.9875 7.24787C17.9885 6.82662 17.9062 6.40934 17.7455 6.01998C17.5847 5.63061 17.3486 5.27684 17.0508 4.97898C16.7529 4.68112 16.3991 4.44503 16.0098 4.28428C15.6204 4.12352 15.2031 4.04127 14.7819 4.04224C14.3606 4.04322 13.9437 4.1274 13.5551 4.28995C13.1665 4.4525 12.8138 4.69021 12.5173 4.98945L12.5001 5.00669L12.4828 4.98945C11.8824 4.39288 11.0699 4.05866 10.2235 4.06003C9.37706 4.0614 8.56569 4.39825 7.96717 4.99676C7.36865 5.59527 7.0318 6.40663 7.03042 7.25306C7.02904 8.09949 7.36325 8.91194 7.95981 9.5124L12.2929 13.8455ZM8.37402 5.40376C8.86399 4.91397 9.52842 4.63882 10.2212 4.63882C10.914 4.63882 11.5784 4.91397 12.0684 5.40376L12.293 5.62837C12.3202 5.65558 12.3525 5.67716 12.3881 5.69189C12.4236 5.70661 12.4617 5.71419 12.5002 5.71419C12.5387 5.71419 12.5768 5.70661 12.6123 5.69189C12.6479 5.67716 12.6802 5.65558 12.7074 5.62837L12.9317 5.40376C13.4227 4.91883 14.0855 4.64784 14.7756 4.64997C15.4656 4.6521 16.1268 4.92717 16.6147 5.41511C17.1027 5.90305 17.3777 6.56424 17.3798 7.25428C17.3819 7.94433 17.1109 8.60718 16.626 9.09809L12.5 13.2241L8.37402 9.09809C7.88413 8.60819 7.60891 7.94375 7.60891 7.25093C7.60891 6.5581 7.88413 5.89366 8.37402 5.40376Z" fill="black"/>
<path d="M8.37402 5.40376C8.86399 4.91397 9.52842 4.63882 10.2212 4.63882C10.914 4.63882 11.5784 4.91397 12.0684 5.40376L12.293 5.62837C12.3202 5.65558 12.3525 5.67716 12.3881 5.69189C12.4236 5.70661 12.4617 5.71419 12.5002 5.71419C12.5387 5.71419 12.5768 5.70661 12.6123 5.69189C12.6479 5.67716 12.6802 5.65558 12.7074 5.62837L12.9317 5.40376C13.4227 4.91883 14.0855 4.64784 14.7756 4.64997C15.4656 4.6521 16.1268 4.92717 16.6147 5.41511C17.1027 5.90305 17.3777 6.56424 17.3798 7.25428C17.3819 7.94433 17.1109 8.60718 16.626 9.09809L12.5 13.2241L8.37402 9.09809C7.88413 8.60819 7.60891 7.94375 7.60891 7.25093C7.60891 6.5581 7.88413 5.89366 8.37402 5.40376Z" fill="#FF0000"/>
<path d="M4.96875 18.4052H5.79963C5.83585 18.4052 5.87085 18.3921 5.89816 18.3683L6.2946 18.0229C6.34138 17.9822 6.40843 17.9744 6.46327 18.0035L7.18994 18.3878C7.21155 18.3993 7.23563 18.4052 7.26008 18.4052H9.0546C9.0918 18.4052 9.12767 18.4191 9.15526 18.444L9.79005 19.0186C9.8792 19.0993 10.0223 19.0476 10.0392 18.9285L10.5596 15.2688C10.5848 15.0916 10.8431 15.0994 10.8576 15.2777L11.3182 20.9553C11.3322 21.1282 11.5796 21.1433 11.6146 20.9735L12.1195 18.5249C12.1339 18.4552 12.1953 18.4052 12.2664 18.4052H13.915C13.9411 18.4052 13.9667 18.3985 13.9893 18.3855L15.2486 17.6673C15.2941 17.6414 15.3497 17.6411 15.3955 17.6664L16.6975 18.3865C16.7197 18.3988 16.7447 18.4052 16.7701 18.4052H17.6928C17.7158 18.4052 17.7385 18.4 17.7592 18.3898L18.1462 18.199C18.1853 18.1797 18.2309 18.1784 18.271 18.1954L18.7387 18.3934C18.7572 18.4012 18.7771 18.4052 18.7972 18.4052H21.0938" stroke="black" stroke-width="0.5" stroke-linecap="round"/>
</g>
<defs>
<clipPath id="clip0_2_24">
<rect width="25" height="25" fill="white"/>
</clipPath>
</defs>
</svg>
